solid OpenSCAD_Model
  facet normal -1 0 0
    outer loop
      vertex -2.45 2.2 0
      vertex -2.45 9.2 6.1
      vertex -2.45 9.2 0
    endloop
  endfacet
  facet normal -1 -0 0
    outer loop
      vertex -2.45 9.2 6.1
      vertex -2.45 2.2 0
      vertex -2.45 2.2 6.1
    endloop
  endfacet
  facet normal -0 0 1
    outer loop
      vertex -2.45 9.2 6.1
      vertex 7.45 2.2 6.1
      vertex 7.45 9.2 6.1
    endloop
  endfacet
  facet normal 0 0 1
    outer loop
      vertex 7.45 2.2 6.1
      vertex -2.45 9.2 6.1
      vertex -2.45 2.2 6.1
    endloop
  endfacet
  facet normal 1 0 0
    outer loop
      vertex 7.45 2.2 5.07882
      vertex 7.45 9.2 6.1
      vertex 7.45 2.2 6.1
    endloop
  endfacet
  facet normal 1 0 0
    outer loop
      vertex 7.45 9.2 6.1
      vertex 7.45 2.2 5.07882
      vertex 7.45 9.2 0
    endloop
  endfacet
  facet normal 1 0 0
    outer loop
      vertex 7.45 -2.3 0
      vertex 7.45 2.2 5.07882
      vertex 7.45 -2.3 3.05
    endloop
  endfacet
  facet normal 1 0 0
    outer loop
      vertex 7.45 2.2 5.07882
      vertex 7.45 -2.3 0
      vertex 7.45 9.2 0
    endloop
  endfacet
  facet normal 0 0 -1
    outer loop
      vertex -1.65 -2.3 0
      vertex -2.45 -2.3 0
      vertex -1.65 2.2 0
    endloop
  endfacet
  facet normal 0 0 -1
    outer loop
      vertex 6.65 2.2 0
      vertex 7.45 -2.3 0
      vertex 6.65 -2.3 0
    endloop
  endfacet
  facet normal 0 0 -1
    outer loop
      vertex 7.45 -2.3 0
      vertex 6.65 2.2 0
      vertex 7.45 9.2 0
    endloop
  endfacet
  facet normal 0 0 -1
    outer loop
      vertex -1.65 2.2 0
      vertex 7.45 9.2 0
      vertex 6.65 2.2 0
    endloop
  endfacet
  facet normal 0 0 -1
    outer loop
      vertex -2.45 2.2 0
      vertex -1.65 2.2 0
      vertex -2.45 -2.3 0
    endloop
  endfacet
  facet normal 0 0 -1
    outer loop
      vertex -2.45 9.2 0
      vertex -1.65 2.2 0
      vertex -2.45 2.2 0
    endloop
  endfacet
  facet normal 0 0 -1
    outer loop
      vertex -1.65 2.2 0
      vertex -2.45 9.2 0
      vertex 7.45 9.2 0
    endloop
  endfacet
  facet normal 0 -1 0
    outer loop
      vertex 2.82 2.2 3.43
      vertex 4.68 2.2 4.07
      vertex 2.82 2.2 4.07
    endloop
  endfacet
  facet normal 0 -1 -0
    outer loop
      vertex 4.68 2.2 4.07
      vertex 2.82 2.2 3.43
      vertex 4.68 2.2 3.43
    endloop
  endfacet
  facet normal 0 -1 0
    outer loop
      vertex 0.32 2.2 3.43
      vertex 2.18 2.2 4.07
      vertex 0.32 2.2 4.07
    endloop
  endfacet
  facet normal 0 -1 -0
    outer loop
      vertex 2.18 2.2 4.07
      vertex 0.32 2.2 3.43
      vertex 2.18 2.2 3.43
    endloop
  endfacet
  facet normal 0 -1 0
    outer loop
      vertex 0.32 2.2 4.07
      vertex -1.65 2.2 5.07882
      vertex -0.32 2.2 4.07
    endloop
  endfacet
  facet normal 0 -1 0
    outer loop
      vertex -1.65 2.2 5.07882
      vertex -0.32 2.2 3.43
      vertex -0.32 2.2 4.07
    endloop
  endfacet
  facet normal 0 -1 0
    outer loop
      vertex -1.65 2.2 0
      vertex 0.32 2.2 3.43
      vertex -0.32 2.2 3.43
    endloop
  endfacet
  facet normal 0 -1 -0
    outer loop
      vertex 0.32 2.2 3.43
      vertex -1.65 2.2 0
      vertex 2.18 2.2 3.43
    endloop
  endfacet
  facet normal 0 -1 -0
    outer loop
      vertex 2.18 2.2 3.43
      vertex -1.65 2.2 0
      vertex 2.82 2.2 3.43
    endloop
  endfacet
  facet normal 0 -1 0
    outer loop
      vertex 6.65 2.2 0
      vertex 2.82 2.2 3.43
      vertex -1.65 2.2 0
    endloop
  endfacet
  facet normal 0 -1 0
    outer loop
      vertex 2.82 2.2 3.43
      vertex 6.65 2.2 0
      vertex 4.68 2.2 3.43
    endloop
  endfacet
  facet normal 0 -1 0
    outer loop
      vertex -1.65 2.2 0
      vertex -0.32 2.2 3.43
      vertex -1.65 2.2 5.07882
    endloop
  endfacet
  facet normal 0 -1 0
    outer loop
      vertex -1.65 2.2 5.07882
      vertex -2.45 2.2 6.1
      vertex -2.45 2.2 5.07882
    endloop
  endfacet
  facet normal 0 -1 0
    outer loop
      vertex -2.45 2.2 0
      vertex -2.45 2.2 5.07882
      vertex -2.45 2.2 6.1
    endloop
  endfacet
  facet normal 0 -1 0
    outer loop
      vertex -2.45 2.2 6.1
      vertex -1.65 2.2 5.07882
      vertex 7.45 2.2 6.1
    endloop
  endfacet
  facet normal 0 -1 0
    outer loop
      vertex 6.65 2.2 5.07882
      vertex 7.45 2.2 6.1
      vertex -1.65 2.2 5.07882
    endloop
  endfacet
  facet normal 0 -1 -0
    outer loop
      vertex 7.45 2.2 6.1
      vertex 6.65 2.2 5.07882
      vertex 7.45 2.2 5.07882
    endloop
  endfacet
  facet normal 0 -1 0
    outer loop
      vertex 2.18 2.2 4.07
      vertex -1.65 2.2 5.07882
      vertex 0.32 2.2 4.07
    endloop
  endfacet
  facet normal 0 -1 0
    outer loop
      vertex -1.65 2.2 5.07882
      vertex 2.18 2.2 4.07
      vertex 6.65 2.2 5.07882
    endloop
  endfacet
  facet normal 0 -1 0
    outer loop
      vertex 2.82 2.2 4.07
      vertex 6.65 2.2 5.07882
      vertex 2.18 2.2 4.07
    endloop
  endfacet
  facet normal 0 -1 0
    outer loop
      vertex 4.68 2.2 4.07
      vertex 6.65 2.2 5.07882
      vertex 2.82 2.2 4.07
    endloop
  endfacet
  facet normal 0 -1 0
    outer loop
      vertex 5.32 2.2 4.07
      vertex 6.65 2.2 5.07882
      vertex 4.68 2.2 4.07
    endloop
  endfacet
  facet normal 0 -1 0
    outer loop
      vertex 5.32 2.2 3.43
      vertex 6.65 2.2 5.07882
      vertex 5.32 2.2 4.07
    endloop
  endfacet
  facet normal 0 -1 0
    outer loop
      vertex 5.32 2.2 3.43
      vertex 6.65 2.2 0
      vertex 6.65 2.2 5.07882
    endloop
  endfacet
  facet normal 0 -1 0
    outer loop
      vertex 4.68 2.2 3.43
      vertex 6.65 2.2 0
      vertex 5.32 2.2 3.43
    endloop
  endfacet
  facet normal 0 1 0
    outer loop
      vertex 7.45 9.2 6.1
      vertex 6.65 9.2 5.3
      vertex -2.45 9.2 6.1
    endloop
  endfacet
  facet normal 0 1 0
    outer loop
      vertex 7.45 9.2 6.1
      vertex 6.65 9.2 0.799999
      vertex 6.65 9.2 5.3
    endloop
  endfacet
  facet normal 0 1 0
    outer loop
      vertex 6.65 9.2 0.799999
      vertex 7.45 9.2 0
      vertex -1.65 9.2 0.799999
    endloop
  endfacet
  facet normal 0 1 -0
    outer loop
      vertex 7.45 9.2 0
      vertex 6.65 9.2 0.799999
      vertex 7.45 9.2 6.1
    endloop
  endfacet
  facet normal 0 1 -0
    outer loop
      vertex -1.65 9.2 5.3
      vertex -2.45 9.2 6.1
      vertex 6.65 9.2 5.3
    endloop
  endfacet
  facet normal 0 1 -0
    outer loop
      vertex -1.65 9.2 0.799999
      vertex -2.45 9.2 6.1
      vertex -1.65 9.2 5.3
    endloop
  endfacet
  facet normal 0 1 0
    outer loop
      vertex -1.65 9.2 0.799999
      vertex -2.45 9.2 0
      vertex -2.45 9.2 6.1
    endloop
  endfacet
  facet normal 0 1 0
    outer loop
      vertex -2.45 9.2 0
      vertex -1.65 9.2 0.799999
      vertex 7.45 9.2 0
    endloop
  endfacet
  facet normal 1 -0 0
    outer loop
      vertex -1.65 3 5.3
      vertex -1.65 9.2 0.799999
      vertex -1.65 9.2 5.3
    endloop
  endfacet
  facet normal 1 0 0
    outer loop
      vertex -1.65 9.2 0.799999
      vertex -1.65 3 5.3
      vertex -1.65 3 0.799999
    endloop
  endfacet
  facet normal 0 0 -1
    outer loop
      vertex -1.65 3 5.3
      vertex 6.65 9.2 5.3
      vertex 6.65 3 5.3
    endloop
  endfacet
  facet normal -0 0 -1
    outer loop
      vertex 6.65 9.2 5.3
      vertex -1.65 3 5.3
      vertex -1.65 9.2 5.3
    endloop
  endfacet
  facet normal -1 0 0
    outer loop
      vertex 6.65 3 0.799999
      vertex 6.65 9.2 5.3
      vertex 6.65 9.2 0.799999
    endloop
  endfacet
  facet normal -1 -0 0
    outer loop
      vertex 6.65 9.2 5.3
      vertex 6.65 3 0.799999
      vertex 6.65 3 5.3
    endloop
  endfacet
  facet normal -0 0 1
    outer loop
      vertex -1.65 9.2 0.799999
      vertex 6.65 3 0.799999
      vertex 6.65 9.2 0.799999
    endloop
  endfacet
  facet normal 0 0 1
    outer loop
      vertex 6.65 3 0.799999
      vertex -1.65 9.2 0.799999
      vertex -1.65 3 0.799999
    endloop
  endfacet
  facet normal 0 1 -0
    outer loop
      vertex 2.18 3 3.43
      vertex 0.32 3 4.07
      vertex 2.18 3 4.07
    endloop
  endfacet
  facet normal 0 1 0
    outer loop
      vertex 0.32 3 4.07
      vertex 2.18 3 3.43
      vertex 0.32 3 3.43
    endloop
  endfacet
  facet normal 0 1 -0
    outer loop
      vertex 4.68 3 3.43
      vertex 2.82 3 4.07
      vertex 4.68 3 4.07
    endloop
  endfacet
  facet normal 0 1 0
    outer loop
      vertex 2.82 3 4.07
      vertex 4.68 3 3.43
      vertex 2.82 3 3.43
    endloop
  endfacet
  facet normal 0 1 0
    outer loop
      vertex 4.68 3 4.07
      vertex 6.65 3 5.3
      vertex 5.32 3 4.07
    endloop
  endfacet
  facet normal 0 1 0
    outer loop
      vertex 6.65 3 5.3
      vertex 5.32 3 3.43
      vertex 5.32 3 4.07
    endloop
  endfacet
  facet normal 0 1 0
    outer loop
      vertex 6.65 3 0.799999
      vertex 4.68 3 3.43
      vertex 5.32 3 3.43
    endloop
  endfacet
  facet normal 0 1 0
    outer loop
      vertex 4.68 3 3.43
      vertex 6.65 3 0.799999
      vertex 2.82 3 3.43
    endloop
  endfacet
  facet normal 0 1 0
    outer loop
      vertex 2.82 3 3.43
      vertex 6.65 3 0.799999
      vertex 2.18 3 3.43
    endloop
  endfacet
  facet normal 0 1 0
    outer loop
      vertex -1.65 3 0.799999
      vertex 2.18 3 3.43
      vertex 6.65 3 0.799999
    endloop
  endfacet
  facet normal 0 1 0
    outer loop
      vertex 2.18 3 3.43
      vertex -1.65 3 0.799999
      vertex 0.32 3 3.43
    endloop
  endfacet
  facet normal 0 1 -0
    outer loop
      vertex 6.65 3 0.799999
      vertex 5.32 3 3.43
      vertex 6.65 3 5.3
    endloop
  endfacet
  facet normal 0 1 0
    outer loop
      vertex 2.82 3 4.07
      vertex 6.65 3 5.3
      vertex 4.68 3 4.07
    endloop
  endfacet
  facet normal 0 1 0
    outer loop
      vertex 6.65 3 5.3
      vertex 2.82 3 4.07
      vertex -1.65 3 5.3
    endloop
  endfacet
  facet normal 0 1 -0
    outer loop
      vertex 2.18 3 4.07
      vertex -1.65 3 5.3
      vertex 2.82 3 4.07
    endloop
  endfacet
  facet normal 0 1 -0
    outer loop
      vertex 0.32 3 4.07
      vertex -1.65 3 5.3
      vertex 2.18 3 4.07
    endloop
  endfacet
  facet normal 0 1 -0
    outer loop
      vertex -0.32 3 4.07
      vertex -1.65 3 5.3
      vertex 0.32 3 4.07
    endloop
  endfacet
  facet normal 0 1 -0
    outer loop
      vertex -0.32 3 3.43
      vertex -1.65 3 5.3
      vertex -0.32 3 4.07
    endloop
  endfacet
  facet normal 0 1 0
    outer loop
      vertex -0.32 3 3.43
      vertex -1.65 3 0.799999
      vertex -1.65 3 5.3
    endloop
  endfacet
  facet normal 0 1 0
    outer loop
      vertex 0.32 3 3.43
      vertex -1.65 3 0.799999
      vertex -0.32 3 3.43
    endloop
  endfacet
  facet normal -1 0 0
    outer loop
      vertex -2.45 -2.3 3.05
      vertex -2.45 2.2 0
      vertex -2.45 -2.3 0
    endloop
  endfacet
  facet normal -1 0 0
    outer loop
      vertex -2.45 2.2 0
      vertex -2.45 -2.3 3.05
      vertex -2.45 2.2 5.07882
    endloop
  endfacet
  facet normal 1 -0 0
    outer loop
      vertex -1.65 -2.3 3.05
      vertex -1.65 2.2 0
      vertex -1.65 2.2 5.07882
    endloop
  endfacet
  facet normal 1 0 0
    outer loop
      vertex -1.65 2.2 0
      vertex -1.65 -2.3 3.05
      vertex -1.65 -2.3 0
    endloop
  endfacet
  facet normal 0 -1 0
    outer loop
      vertex -2.45 -2.3 0
      vertex -1.65 -2.3 3.05
      vertex -2.45 -2.3 3.05
    endloop
  endfacet
  facet normal 0 -1 -0
    outer loop
      vertex -1.65 -2.3 3.05
      vertex -2.45 -2.3 0
      vertex -1.65 -2.3 0
    endloop
  endfacet
  facet normal 0 -0.411009 0.911631
    outer loop
      vertex -2.45 2.2 5.07882
      vertex -1.65 -2.3 3.05
      vertex -1.65 2.2 5.07882
    endloop
  endfacet
  facet normal 0 -0.411009 0.911631
    outer loop
      vertex -1.65 -2.3 3.05
      vertex -2.45 2.2 5.07882
      vertex -2.45 -2.3 3.05
    endloop
  endfacet
  facet normal -1 0 0
    outer loop
      vertex 6.65 -2.3 3.05
      vertex 6.65 2.2 0
      vertex 6.65 -2.3 0
    endloop
  endfacet
  facet normal -1 0 0
    outer loop
      vertex 6.65 2.2 0
      vertex 6.65 -2.3 3.05
      vertex 6.65 2.2 5.07882
    endloop
  endfacet
  facet normal 0 -1 0
    outer loop
      vertex 6.65 -2.3 0
      vertex 7.45 -2.3 3.05
      vertex 6.65 -2.3 3.05
    endloop
  endfacet
  facet normal 0 -1 -0
    outer loop
      vertex 7.45 -2.3 3.05
      vertex 6.65 -2.3 0
      vertex 7.45 -2.3 0
    endloop
  endfacet
  facet normal 0 -0.411009 0.911631
    outer loop
      vertex 6.65 2.2 5.07882
      vertex 7.45 -2.3 3.05
      vertex 7.45 2.2 5.07882
    endloop
  endfacet
  facet normal 0 -0.411009 0.911631
    outer loop
      vertex 7.45 -2.3 3.05
      vertex 6.65 2.2 5.07882
      vertex 6.65 -2.3 3.05
    endloop
  endfacet
  facet normal 1 -0 0
    outer loop
      vertex 0.32 0.236464 4.06452
      vertex 0.32 0.32 3.43
      vertex 0.32 0.32 4.07
    endloop
  endfacet
  facet normal 1 -0 0
    outer loop
      vertex 0.32 0.154356 4.04819
      vertex 0.32 0.32 3.43
      vertex 0.32 0.236464 4.06452
    endloop
  endfacet
  facet normal 1 -0 0
    outer loop
      vertex 0.32 0.0750831 4.02128
      vertex 0.32 0.32 3.43
      vertex 0.32 0.154356 4.04819
    endloop
  endfacet
  facet normal 1 -0 0
    outer loop
      vertex 0.32 3.05176e-007 3.98426
      vertex 0.32 0.32 3.43
      vertex 0.32 0.0750831 4.02128
    endloop
  endfacet
  facet normal 1 -0 0
    outer loop
      vertex 0.32 -0.0696065 3.93775
      vertex 0.32 0.32 3.43
      vertex 0.32 3.05176e-007 3.98426
    endloop
  endfacet
  facet normal 1 -0 0
    outer loop
      vertex 0.32 -0.132548 3.88255
      vertex 0.32 0.32 3.43
      vertex 0.32 -0.0696065 3.93775
    endloop
  endfacet
  facet normal 1 -0 0
    outer loop
      vertex 0.32 -0.187746 3.81961
      vertex 0.32 0.32 3.43
      vertex 0.32 -0.132548 3.88255
    endloop
  endfacet
  facet normal 1 -0 0
    outer loop
      vertex 0.32 -0.234255 3.75
      vertex 0.32 0.32 3.43
      vertex 0.32 -0.187746 3.81961
    endloop
  endfacet
  facet normal 1 -0 0
    outer loop
      vertex 0.32 -0.271283 3.67492
      vertex 0.32 0.32 3.43
      vertex 0.32 -0.234255 3.75
    endloop
  endfacet
  facet normal 1 -0 0
    outer loop
      vertex 0.32 -0.298192 3.59564
      vertex 0.32 0.32 3.43
      vertex 0.32 -0.271283 3.67492
    endloop
  endfacet
  facet normal 1 -0 0
    outer loop
      vertex 0.32 -0.314524 3.51354
      vertex 0.32 0.32 3.43
      vertex 0.32 -0.298192 3.59564
    endloop
  endfacet
  facet normal 1 0 0
    outer loop
      vertex 0.32 0.32 3.43
      vertex 0.32 -0.314524 3.51354
      vertex 0.32 -0.319999 3.43
    endloop
  endfacet
  facet normal -1 0 0
    outer loop
      vertex -0.319999 0.32 3.43
      vertex -0.319999 0.236464 4.06452
      vertex -0.319999 0.32 4.07
    endloop
  endfacet
  facet normal -1 0 0
    outer loop
      vertex -0.319999 0.32 3.43
      vertex -0.319999 0.154356 4.04819
      vertex -0.319999 0.236464 4.06452
    endloop
  endfacet
  facet normal -1 0 0
    outer loop
      vertex -0.319999 0.32 3.43
      vertex -0.319999 0.0750831 4.02128
      vertex -0.319999 0.154356 4.04819
    endloop
  endfacet
  facet normal -1 0 0
    outer loop
      vertex -0.319999 0.32 3.43
      vertex -0.319999 3.05176e-007 3.98426
      vertex -0.319999 0.0750831 4.02128
    endloop
  endfacet
  facet normal -1 0 0
    outer loop
      vertex -0.319999 5.34793e-017 3.43
      vertex -0.319999 3.05176e-007 3.98426
      vertex -0.319999 0.32 3.43
    endloop
  endfacet
  facet normal -1 0 0
    outer loop
      vertex -0.319999 5.34793e-017 3.43
      vertex -0.319999 -0.0696065 3.93775
      vertex -0.319999 3.05176e-007 3.98426
    endloop
  endfacet
  facet normal -1 0 0
    outer loop
      vertex -0.319999 5.34793e-017 3.43
      vertex -0.319999 -0.132548 3.88255
      vertex -0.319999 -0.0696065 3.93775
    endloop
  endfacet
  facet normal -1 0 0
    outer loop
      vertex -0.319999 5.34793e-017 3.43
      vertex -0.319999 -0.187746 3.81961
      vertex -0.319999 -0.132548 3.88255
    endloop
  endfacet
  facet normal -1 0 0
    outer loop
      vertex -0.319999 5.34793e-017 3.43
      vertex -0.319999 -0.234255 3.75
      vertex -0.319999 -0.187746 3.81961
    endloop
  endfacet
  facet normal -1 0 0
    outer loop
      vertex -0.319999 5.34793e-017 3.43
      vertex -0.319999 -0.271283 3.67492
      vertex -0.319999 -0.234255 3.75
    endloop
  endfacet
  facet normal -1 0 0
    outer loop
      vertex -0.319999 5.34793e-017 3.43
      vertex -0.319999 -0.298192 3.59564
      vertex -0.319999 -0.271283 3.67492
    endloop
  endfacet
  facet normal -1 0 0
    outer loop
      vertex -0.319999 5.34793e-017 3.43
      vertex -0.319999 -0.314524 3.51354
      vertex -0.319999 -0.298192 3.59564
    endloop
  endfacet
  facet normal -1 0 -0
    outer loop
      vertex -0.319999 -0.314524 3.51354
      vertex -0.319999 5.34793e-017 3.43
      vertex -0.319999 -0.319999 3.43
    endloop
  endfacet
  facet normal 0 -0.83147 0.55557
    outer loop
      vertex -0.319999 -0.234255 3.75
      vertex 0.32 -0.187746 3.81961
      vertex -0.319999 -0.187746 3.81961
    endloop
  endfacet
  facet normal 0 -0.83147 0.55557
    outer loop
      vertex 0.32 -0.187746 3.81961
      vertex -0.319999 -0.234255 3.75
      vertex 0.32 -0.234255 3.75
    endloop
  endfacet
  facet normal 0 -0.0654007 0.997859
    outer loop
      vertex -0.176484 0.32 4.07
      vertex 0.32 0.236464 4.06452
      vertex 0.32 0.32 4.07
    endloop
  endfacet
  facet normal 0 -0.0654007 0.997859
    outer loop
      vertex -0.319999 0.236464 4.06452
      vertex -0.176484 0.32 4.07
      vertex -0.319999 0.32 4.07
    endloop
  endfacet
  facet normal 0 -0.0654007 0.997859
    outer loop
      vertex -0.176484 0.32 4.07
      vertex -0.319999 0.236464 4.06452
      vertex 0.32 0.236464 4.06452
    endloop
  endfacet
  facet normal 0 -0.980784 0.195095
    outer loop
      vertex -0.319999 -0.314524 3.51354
      vertex 0.32 -0.298192 3.59564
      vertex -0.319999 -0.298192 3.59564
    endloop
  endfacet
  facet normal 0 -0.980784 0.195095
    outer loop
      vertex 0.32 -0.298192 3.59564
      vertex -0.319999 -0.314524 3.51354
      vertex 0.32 -0.314524 3.51354
    endloop
  endfacet
  facet normal 0 -0.751843 0.659342
    outer loop
      vertex -0.319999 -0.187746 3.81961
      vertex 0.32 -0.132548 3.88255
      vertex -0.319999 -0.132548 3.88255
    endloop
  endfacet
  facet normal 0 -0.751843 0.659342
    outer loop
      vertex 0.32 -0.132548 3.88255
      vertex -0.319999 -0.187746 3.81961
      vertex 0.32 -0.187746 3.81961
    endloop
  endfacet
  facet normal 0 -0.946933 0.321431
    outer loop
      vertex -0.319999 -0.298192 3.59564
      vertex 0.32 -0.271283 3.67492
      vertex -0.319999 -0.271283 3.67492
    endloop
  endfacet
  facet normal 0 -0.946933 0.321431
    outer loop
      vertex 0.32 -0.271283 3.67492
      vertex -0.319999 -0.298192 3.59564
      vertex 0.32 -0.298192 3.59564
    endloop
  endfacet
  facet normal 0 -0.997859 0.0654007
    outer loop
      vertex -0.319999 -0.319999 3.43
      vertex 0.32 -0.314524 3.51354
      vertex -0.319999 -0.314524 3.51354
    endloop
  endfacet
  facet normal 0 -0.997859 0.0654007
    outer loop
      vertex 0.32 -0.319999 3.43
      vertex 0.32 -0.314524 3.51354
      vertex -0.319999 -0.319999 3.43
    endloop
  endfacet
  facet normal 0 -0.442292 0.896871
    outer loop
      vertex -0.319999 0.0750831 4.02128
      vertex 0.32 3.05176e-007 3.98426
      vertex 0.32 0.0750831 4.02128
    endloop
  endfacet
  facet normal 0 -0.442292 0.896871
    outer loop
      vertex 0.32 3.05176e-007 3.98426
      vertex -0.319999 0.0750831 4.02128
      vertex -0.319999 3.05176e-007 3.98426
    endloop
  endfacet
  facet normal 0 -0.195095 0.980784
    outer loop
      vertex -0.319999 0.236464 4.06452
      vertex 0.32 0.154356 4.04819
      vertex 0.32 0.236464 4.06452
    endloop
  endfacet
  facet normal 0 -0.195095 0.980784
    outer loop
      vertex 0.32 0.154356 4.04819
      vertex -0.319999 0.236464 4.06452
      vertex -0.319999 0.154356 4.04819
    endloop
  endfacet
  facet normal 0 -0.89687 0.442295
    outer loop
      vertex -0.319999 -0.271283 3.67492
      vertex 0.32 -0.234255 3.75
      vertex -0.319999 -0.234255 3.75
    endloop
  endfacet
  facet normal 0 -0.89687 0.442295
    outer loop
      vertex 0.32 -0.234255 3.75
      vertex -0.319999 -0.271283 3.67492
      vertex 0.32 -0.271283 3.67492
    endloop
  endfacet
  facet normal 0 -0.659342 0.751843
    outer loop
      vertex -0.319999 -0.0696065 3.93775
      vertex 0.32 -0.132548 3.88255
      vertex 0.32 -0.0696065 3.93775
    endloop
  endfacet
  facet normal 0 -0.659342 0.751843
    outer loop
      vertex 0.32 -0.132548 3.88255
      vertex -0.319999 -0.0696065 3.93775
      vertex -0.319999 -0.132548 3.88255
    endloop
  endfacet
  facet normal 0 -0.55557 0.83147
    outer loop
      vertex -0.319999 3.05176e-007 3.98426
      vertex 0.32 -0.0696065 3.93775
      vertex 0.32 3.05176e-007 3.98426
    endloop
  endfacet
  facet normal 0 -0.55557 0.83147
    outer loop
      vertex 0.32 -0.0696065 3.93775
      vertex -0.319999 3.05176e-007 3.98426
      vertex -0.319999 -0.0696065 3.93775
    endloop
  endfacet
  facet normal 0 -0.321431 0.946933
    outer loop
      vertex -0.319999 0.154356 4.04819
      vertex 0.32 0.0750831 4.02128
      vertex 0.32 0.154356 4.04819
    endloop
  endfacet
  facet normal 0 -0.321431 0.946933
    outer loop
      vertex 0.32 0.0750831 4.02128
      vertex -0.319999 0.154356 4.04819
      vertex -0.319999 0.0750831 4.02128
    endloop
  endfacet
  facet normal 0 1 0
    outer loop
      vertex -0.319999 0.32 3.43
      vertex -0.176484 0.32 4.07
      vertex 0.176484 0.32 3.43
    endloop
  endfacet
  facet normal 0 1 0
    outer loop
      vertex -0.176484 0.32 4.07
      vertex -0.319999 0.32 3.43
      vertex -0.319999 0.32 4.07
    endloop
  endfacet
  facet normal 0 1 0
    outer loop
      vertex -0.319999 0.32 3.43
      vertex 0.176484 0.32 3.43
      vertex 0.32 0.32 3.43
    endloop
  endfacet
  facet normal 0 0 -1
    outer loop
      vertex 0.32 -0.319999 3.43
      vertex 0.32 5.34793e-017 3.43
      vertex 0.32 0.32 3.43
    endloop
  endfacet
  facet normal 0 0 -1
    outer loop
      vertex -0.319999 5.34793e-017 3.43
      vertex 0.32 0.32 3.43
      vertex 0.32 5.34793e-017 3.43
    endloop
  endfacet
  facet normal -0 0 -1
    outer loop
      vertex 0.32 0.32 3.43
      vertex -0.319999 5.34793e-017 3.43
      vertex -0.319999 0.32 3.43
    endloop
  endfacet
  facet normal -1 0 0
    outer loop
      vertex -0.32 3 3.43
      vertex -0.32 8.56 4.07
      vertex -0.32 8.56 3.43
    endloop
  endfacet
  facet normal -1 -0 0
    outer loop
      vertex -0.32 8.56 4.07
      vertex -0.32 3 3.43
      vertex -0.32 3 4.07
    endloop
  endfacet
  facet normal -1 0 0
    outer loop
      vertex -0.32 0.32 3.43
      vertex -0.32 2.2 4.07
      vertex -0.32 2.2 3.43
    endloop
  endfacet
  facet normal -1 -0 0
    outer loop
      vertex -0.32 2.2 4.07
      vertex -0.32 0.32 3.43
      vertex -0.32 0.32 4.07
    endloop
  endfacet
  facet normal 1 -0 0
    outer loop
      vertex 0.32 3 4.07
      vertex 0.32 8.56 3.43
      vertex 0.32 8.56 4.07
    endloop
  endfacet
  facet normal 1 0 0
    outer loop
      vertex 0.32 8.56 3.43
      vertex 0.32 3 4.07
      vertex 0.32 3 3.43
    endloop
  endfacet
  facet normal 1 0 0
    outer loop
      vertex 0.32 2.2 4.07
      vertex 0.32 0.32 4.07
      vertex 0.32 2.2 3.43
    endloop
  endfacet
  facet normal 1 0 0
    outer loop
      vertex 0.32 2.2 3.43
      vertex 0.32 0.32 4.07
      vertex 0.32 0.32 3.43
    endloop
  endfacet
  facet normal 0 0 -1
    outer loop
      vertex -0.32 3 3.43
      vertex 0.32 8.56 3.43
      vertex 0.32 3 3.43
    endloop
  endfacet
  facet normal -0 0 -1
    outer loop
      vertex 0.32 8.56 3.43
      vertex -0.32 3 3.43
      vertex -0.32 8.56 3.43
    endloop
  endfacet
  facet normal 0 0 -1
    outer loop
      vertex 0.176484 0.32 3.43
      vertex 0.32 2.2 3.43
      vertex 0.32 0.32 3.43
    endloop
  endfacet
  facet normal 0 0 -1
    outer loop
      vertex -0.32 2.2 3.43
      vertex 0.176484 0.32 3.43
      vertex -0.32 0.32 3.43
    endloop
  endfacet
  facet normal 0 0 -1
    outer loop
      vertex 0.176484 0.32 3.43
      vertex -0.32 2.2 3.43
      vertex 0.32 2.2 3.43
    endloop
  endfacet
  facet normal 0 -1 0
    outer loop
      vertex -0.32 0.32 4.07
      vertex -0.176484 0.32 4.07
      vertex 0.32 0.32 4.07
    endloop
  endfacet
  facet normal 0 -1 0
    outer loop
      vertex -0.32 0.32 3.43
      vertex -0.176484 0.32 4.07
      vertex -0.32 0.32 4.07
    endloop
  endfacet
  facet normal 0 -1 -0
    outer loop
      vertex -0.176484 0.32 4.07
      vertex -0.32 0.32 3.43
      vertex 0.176484 0.32 3.43
    endloop
  endfacet
  facet normal -0 0 1
    outer loop
      vertex -0.32 8.56 4.07
      vertex 0.32 3 4.07
      vertex 0.32 8.56 4.07
    endloop
  endfacet
  facet normal 0 0 1
    outer loop
      vertex 0.32 3 4.07
      vertex -0.32 8.56 4.07
      vertex -0.32 3 4.07
    endloop
  endfacet
  facet normal -0 0 1
    outer loop
      vertex -0.32 2.2 4.07
      vertex 0.32 0.32 4.07
      vertex 0.32 2.2 4.07
    endloop
  endfacet
  facet normal 0 0 1
    outer loop
      vertex 0.32 0.32 4.07
      vertex -0.32 2.2 4.07
      vertex -0.32 0.32 4.07
    endloop
  endfacet
  facet normal -0.936329 0.351123 0
    outer loop
      vertex -0.32 8.56 3.43
      vertex -0.0799999 9.2 3.83
      vertex -0.0799999 9.2 3.67
    endloop
  endfacet
  facet normal -0.936329 0.351123 0
    outer loop
      vertex -0.0799999 9.2 3.83
      vertex -0.32 8.56 3.43
      vertex -0.32 8.56 4.07
    endloop
  endfacet
  facet normal 0 1 -0
    outer loop
      vertex 0.0799999 9.2 3.67
      vertex -0.0799999 9.2 3.83
      vertex 0.0799999 9.2 3.83
    endloop
  endfacet
  facet normal 0 1 0
    outer loop
      vertex -0.0799999 9.2 3.83
      vertex 0.0799999 9.2 3.67
      vertex -0.0799999 9.2 3.67
    endloop
  endfacet
  facet normal 0 0.351123 -0.936329
    outer loop
      vertex 0.32 8.56 3.43
      vertex -0.0799999 9.2 3.67
      vertex 0.0799999 9.2 3.67
    endloop
  endfacet
  facet normal 0 0.351123 -0.936329
    outer loop
      vertex -0.0799999 9.2 3.67
      vertex 0.32 8.56 3.43
      vertex -0.32 8.56 3.43
    endloop
  endfacet
  facet normal -0 0.351123 0.936329
    outer loop
      vertex -0.0799999 9.2 3.83
      vertex 0.32 8.56 4.07
      vertex 0.0799999 9.2 3.83
    endloop
  endfacet
  facet normal 0 0.351123 0.936329
    outer loop
      vertex 0.32 8.56 4.07
      vertex -0.0799999 9.2 3.83
      vertex -0.32 8.56 4.07
    endloop
  endfacet
  facet normal 0.936329 0.351123 0
    outer loop
      vertex 0.32 8.56 4.07
      vertex 0.0799999 9.2 3.67
      vertex 0.0799999 9.2 3.83
    endloop
  endfacet
  facet normal 0.936329 0.351123 0
    outer loop
      vertex 0.0799999 9.2 3.67
      vertex 0.32 8.56 4.07
      vertex 0.32 8.56 3.43
    endloop
  endfacet
  facet normal -1 0 0
    outer loop
      vertex -0.32 -0.32 -2.76
      vertex -0.32 0.32 3.43
      vertex -0.32 0.32 -2.76
    endloop
  endfacet
  facet normal -1 -0 0
    outer loop
      vertex -0.32 0.32 3.43
      vertex -0.32 -0.32 -2.76
      vertex -0.32 -0.32 3.43
    endloop
  endfacet
  facet normal 1 -0 0
    outer loop
      vertex 0.32 5.34793e-017 3.43
      vertex 0.32 0.32 -2.76
      vertex 0.32 0.32 3.43
    endloop
  endfacet
  facet normal 1 0 0
    outer loop
      vertex 0.32 -0.32 -2.76
      vertex 0.32 5.34793e-017 3.43
      vertex 0.32 -0.319999 3.43
    endloop
  endfacet
  facet normal 1 0 0
    outer loop
      vertex 0.32 -0.32 -2.76
      vertex 0.32 -0.319999 3.43
      vertex 0.32 -0.32 3.43
    endloop
  endfacet
  facet normal 1 0 0
    outer loop
      vertex 0.32 5.34793e-017 3.43
      vertex 0.32 -0.32 -2.76
      vertex 0.32 0.32 -2.76
    endloop
  endfacet
  facet normal 0 -1 0
    outer loop
      vertex -0.32 -0.32 -2.76
      vertex 0.32 -0.32 3.43
      vertex -0.32 -0.32 3.43
    endloop
  endfacet
  facet normal 0 -1 -0
    outer loop
      vertex 0.32 -0.32 3.43
      vertex -0.32 -0.32 -2.76
      vertex 0.32 -0.32 -2.76
    endloop
  endfacet
  facet normal 0 0 1
    outer loop
      vertex 0.32 0.32 3.43
      vertex -0.319999 5.34793e-017 3.43
      vertex 0.32 5.34793e-017 3.43
    endloop
  endfacet
  facet normal 0 0 1
    outer loop
      vertex -0.32 -0.32 3.43
      vertex -0.319999 5.34793e-017 3.43
      vertex -0.32 0.32 3.43
    endloop
  endfacet
  facet normal -0 0 1
    outer loop
      vertex -0.32 0.32 3.43
      vertex -0.319999 5.34793e-017 3.43
      vertex 0.32 0.32 3.43
    endloop
  endfacet
  facet normal -0 0 1
    outer loop
      vertex -0.319999 -0.319999 3.43
      vertex 0.32 -0.32 3.43
      vertex 0.32 -0.319999 3.43
    endloop
  endfacet
  facet normal 0 0 1
    outer loop
      vertex -0.319999 -0.319999 3.43
      vertex -0.32 -0.32 3.43
      vertex 0.32 -0.32 3.43
    endloop
  endfacet
  facet normal 0 0 1
    outer loop
      vertex -0.319999 5.34793e-017 3.43
      vertex -0.32 -0.32 3.43
      vertex -0.319999 -0.319999 3.43
    endloop
  endfacet
  facet normal 0 1 -0
    outer loop
      vertex 0.32 0.32 -2.76
      vertex -0.32 0.32 3.43
      vertex 0.32 0.32 3.43
    endloop
  endfacet
  facet normal 0 1 0
    outer loop
      vertex -0.32 0.32 3.43
      vertex 0.32 0.32 -2.76
      vertex -0.32 0.32 -2.76
    endloop
  endfacet
  facet normal -0.936329 0 -0.351123
    outer loop
      vertex -0.0799999 -0.0799999 -3.4
      vertex -0.32 0.32 -2.76
      vertex -0.0799999 0.0799999 -3.4
    endloop
  endfacet
  facet normal -0.936329 -0 -0.351123
    outer loop
      vertex -0.32 0.32 -2.76
      vertex -0.0799999 -0.0799999 -3.4
      vertex -0.32 -0.32 -2.76
    endloop
  endfacet
  facet normal 0 0 -1
    outer loop
      vertex -0.0799999 -0.0799999 -3.4
      vertex 0.0799999 0.0799999 -3.4
      vertex 0.0799999 -0.0799999 -3.4
    endloop
  endfacet
  facet normal -0 0 -1
    outer loop
      vertex 0.0799999 0.0799999 -3.4
      vertex -0.0799999 -0.0799999 -3.4
      vertex -0.0799999 0.0799999 -3.4
    endloop
  endfacet
  facet normal 0 -0.936329 -0.351123
    outer loop
      vertex -0.0799999 -0.0799999 -3.4
      vertex 0.32 -0.32 -2.76
      vertex -0.32 -0.32 -2.76
    endloop
  endfacet
  facet normal 0 -0.936329 -0.351123
    outer loop
      vertex 0.32 -0.32 -2.76
      vertex -0.0799999 -0.0799999 -3.4
      vertex 0.0799999 -0.0799999 -3.4
    endloop
  endfacet
  facet normal 0 0.936329 -0.351123
    outer loop
      vertex 0.0799999 0.0799999 -3.4
      vertex -0.32 0.32 -2.76
      vertex 0.32 0.32 -2.76
    endloop
  endfacet
  facet normal 0 0.936329 -0.351123
    outer loop
      vertex -0.32 0.32 -2.76
      vertex 0.0799999 0.0799999 -3.4
      vertex -0.0799999 0.0799999 -3.4
    endloop
  endfacet
  facet normal 0.936329 0 -0.351123
    outer loop
      vertex 0.32 0.32 -2.76
      vertex 0.0799999 -0.0799999 -3.4
      vertex 0.0799999 0.0799999 -3.4
    endloop
  endfacet
  facet normal 0.936329 0 -0.351123
    outer loop
      vertex 0.0799999 -0.0799999 -3.4
      vertex 0.32 0.32 -2.76
      vertex 0.32 -0.32 -2.76
    endloop
  endfacet
  facet normal 1 -0 0
    outer loop
      vertex 2.82 0.236464 4.06452
      vertex 2.82 0.32 3.43
      vertex 2.82 0.32 4.07
    endloop
  endfacet
  facet normal 1 -0 0
    outer loop
      vertex 2.82 0.154356 4.04819
      vertex 2.82 0.32 3.43
      vertex 2.82 0.236464 4.06452
    endloop
  endfacet
  facet normal 1 -0 0
    outer loop
      vertex 2.82 0.0750831 4.02128
      vertex 2.82 0.32 3.43
      vertex 2.82 0.154356 4.04819
    endloop
  endfacet
  facet normal 1 -0 0
    outer loop
      vertex 2.82 3.05176e-007 3.98426
      vertex 2.82 0.32 3.43
      vertex 2.82 0.0750831 4.02128
    endloop
  endfacet
  facet normal 1 -0 0
    outer loop
      vertex 2.82 -0.0696065 3.93775
      vertex 2.82 0.32 3.43
      vertex 2.82 3.05176e-007 3.98426
    endloop
  endfacet
  facet normal 1 -0 0
    outer loop
      vertex 2.82 -0.132548 3.88255
      vertex 2.82 0.32 3.43
      vertex 2.82 -0.0696065 3.93775
    endloop
  endfacet
  facet normal 1 -0 0
    outer loop
      vertex 2.82 -0.187746 3.81961
      vertex 2.82 0.32 3.43
      vertex 2.82 -0.132548 3.88255
    endloop
  endfacet
  facet normal 1 -0 0
    outer loop
      vertex 2.82 -0.234255 3.75
      vertex 2.82 0.32 3.43
      vertex 2.82 -0.187746 3.81961
    endloop
  endfacet
  facet normal 1 -0 0
    outer loop
      vertex 2.82 -0.271283 3.67492
      vertex 2.82 0.32 3.43
      vertex 2.82 -0.234255 3.75
    endloop
  endfacet
  facet normal 1 -0 0
    outer loop
      vertex 2.82 -0.298192 3.59564
      vertex 2.82 0.32 3.43
      vertex 2.82 -0.271283 3.67492
    endloop
  endfacet
  facet normal 1 -0 0
    outer loop
      vertex 2.82 -0.314524 3.51354
      vertex 2.82 0.32 3.43
      vertex 2.82 -0.298192 3.59564
    endloop
  endfacet
  facet normal 1 0 0
    outer loop
      vertex 2.82 0.32 3.43
      vertex 2.82 -0.314524 3.51354
      vertex 2.82 -0.319999 3.43
    endloop
  endfacet
  facet normal -1 0 0
    outer loop
      vertex 2.18 0.32 3.43
      vertex 2.18 0.236464 4.06452
      vertex 2.18 0.32 4.07
    endloop
  endfacet
  facet normal -1 0 0
    outer loop
      vertex 2.18 0.32 3.43
      vertex 2.18 0.154356 4.04819
      vertex 2.18 0.236464 4.06452
    endloop
  endfacet
  facet normal -1 0 0
    outer loop
      vertex 2.18 0.32 3.43
      vertex 2.18 0.0750831 4.02128
      vertex 2.18 0.154356 4.04819
    endloop
  endfacet
  facet normal -1 0 0
    outer loop
      vertex 2.18 0.32 3.43
      vertex 2.18 3.05176e-007 3.98426
      vertex 2.18 0.0750831 4.02128
    endloop
  endfacet
  facet normal -1 0 0
    outer loop
      vertex 2.18 5.34793e-017 3.43
      vertex 2.18 3.05176e-007 3.98426
      vertex 2.18 0.32 3.43
    endloop
  endfacet
  facet normal -1 0 0
    outer loop
      vertex 2.18 5.34793e-017 3.43
      vertex 2.18 -0.0696065 3.93775
      vertex 2.18 3.05176e-007 3.98426
    endloop
  endfacet
  facet normal -1 0 0
    outer loop
      vertex 2.18 5.34793e-017 3.43
      vertex 2.18 -0.132548 3.88255
      vertex 2.18 -0.0696065 3.93775
    endloop
  endfacet
  facet normal -1 0 0
    outer loop
      vertex 2.18 5.34793e-017 3.43
      vertex 2.18 -0.187746 3.81961
      vertex 2.18 -0.132548 3.88255
    endloop
  endfacet
  facet normal -1 0 0
    outer loop
      vertex 2.18 5.34793e-017 3.43
      vertex 2.18 -0.234255 3.75
      vertex 2.18 -0.187746 3.81961
    endloop
  endfacet
  facet normal -1 0 0
    outer loop
      vertex 2.18 5.34793e-017 3.43
      vertex 2.18 -0.271283 3.67492
      vertex 2.18 -0.234255 3.75
    endloop
  endfacet
  facet normal -1 0 0
    outer loop
      vertex 2.18 5.34793e-017 3.43
      vertex 2.18 -0.298192 3.59564
      vertex 2.18 -0.271283 3.67492
    endloop
  endfacet
  facet normal -1 0 0
    outer loop
      vertex 2.18 5.34793e-017 3.43
      vertex 2.18 -0.314524 3.51354
      vertex 2.18 -0.298192 3.59564
    endloop
  endfacet
  facet normal -1 0 -0
    outer loop
      vertex 2.18 -0.314524 3.51354
      vertex 2.18 5.34793e-017 3.43
      vertex 2.18 -0.319999 3.43
    endloop
  endfacet
  facet normal 0 -0.83147 0.55557
    outer loop
      vertex 2.18 -0.234255 3.75
      vertex 2.82 -0.187746 3.81961
      vertex 2.18 -0.187746 3.81961
    endloop
  endfacet
  facet normal 0 -0.83147 0.55557
    outer loop
      vertex 2.82 -0.187746 3.81961
      vertex 2.18 -0.234255 3.75
      vertex 2.82 -0.234255 3.75
    endloop
  endfacet
  facet normal 0 -0.0654007 0.997859
    outer loop
      vertex 2.32352 0.32 4.07
      vertex 2.82 0.236464 4.06452
      vertex 2.82 0.32 4.07
    endloop
  endfacet
  facet normal 0 -0.0654007 0.997859
    outer loop
      vertex 2.18 0.236464 4.06452
      vertex 2.32352 0.32 4.07
      vertex 2.18 0.32 4.07
    endloop
  endfacet
  facet normal 0 -0.0654007 0.997859
    outer loop
      vertex 2.32352 0.32 4.07
      vertex 2.18 0.236464 4.06452
      vertex 2.82 0.236464 4.06452
    endloop
  endfacet
  facet normal 0 -0.980784 0.195095
    outer loop
      vertex 2.18 -0.314524 3.51354
      vertex 2.82 -0.298192 3.59564
      vertex 2.18 -0.298192 3.59564
    endloop
  endfacet
  facet normal 0 -0.980784 0.195095
    outer loop
      vertex 2.82 -0.298192 3.59564
      vertex 2.18 -0.314524 3.51354
      vertex 2.82 -0.314524 3.51354
    endloop
  endfacet
  facet normal 0 -0.751843 0.659342
    outer loop
      vertex 2.18 -0.187746 3.81961
      vertex 2.82 -0.132548 3.88255
      vertex 2.18 -0.132548 3.88255
    endloop
  endfacet
  facet normal 0 -0.751843 0.659342
    outer loop
      vertex 2.82 -0.132548 3.88255
      vertex 2.18 -0.187746 3.81961
      vertex 2.82 -0.187746 3.81961
    endloop
  endfacet
  facet normal 0 -0.946933 0.321431
    outer loop
      vertex 2.18 -0.298192 3.59564
      vertex 2.82 -0.271283 3.67492
      vertex 2.18 -0.271283 3.67492
    endloop
  endfacet
  facet normal 0 -0.946933 0.321431
    outer loop
      vertex 2.82 -0.271283 3.67492
      vertex 2.18 -0.298192 3.59564
      vertex 2.82 -0.298192 3.59564
    endloop
  endfacet
  facet normal 0 -0.997859 0.0654007
    outer loop
      vertex 2.18 -0.319999 3.43
      vertex 2.82 -0.314524 3.51354
      vertex 2.18 -0.314524 3.51354
    endloop
  endfacet
  facet normal 0 -0.997859 0.0654007
    outer loop
      vertex 2.82 -0.319999 3.43
      vertex 2.82 -0.314524 3.51354
      vertex 2.18 -0.319999 3.43
    endloop
  endfacet
  facet normal 0 -0.442292 0.896871
    outer loop
      vertex 2.18 0.0750831 4.02128
      vertex 2.82 3.05176e-007 3.98426
      vertex 2.82 0.0750831 4.02128
    endloop
  endfacet
  facet normal 0 -0.442292 0.896871
    outer loop
      vertex 2.82 3.05176e-007 3.98426
      vertex 2.18 0.0750831 4.02128
      vertex 2.18 3.05176e-007 3.98426
    endloop
  endfacet
  facet normal 0 -0.195095 0.980784
    outer loop
      vertex 2.18 0.236464 4.06452
      vertex 2.82 0.154356 4.04819
      vertex 2.82 0.236464 4.06452
    endloop
  endfacet
  facet normal 0 -0.195095 0.980784
    outer loop
      vertex 2.82 0.154356 4.04819
      vertex 2.18 0.236464 4.06452
      vertex 2.18 0.154356 4.04819
    endloop
  endfacet
  facet normal 0 -0.89687 0.442295
    outer loop
      vertex 2.18 -0.271283 3.67492
      vertex 2.82 -0.234255 3.75
      vertex 2.18 -0.234255 3.75
    endloop
  endfacet
  facet normal 0 -0.89687 0.442295
    outer loop
      vertex 2.82 -0.234255 3.75
      vertex 2.18 -0.271283 3.67492
      vertex 2.82 -0.271283 3.67492
    endloop
  endfacet
  facet normal 0 -0.659342 0.751843
    outer loop
      vertex 2.18 -0.0696065 3.93775
      vertex 2.82 -0.132548 3.88255
      vertex 2.82 -0.0696065 3.93775
    endloop
  endfacet
  facet normal 0 -0.659342 0.751843
    outer loop
      vertex 2.82 -0.132548 3.88255
      vertex 2.18 -0.0696065 3.93775
      vertex 2.18 -0.132548 3.88255
    endloop
  endfacet
  facet normal 0 -0.55557 0.83147
    outer loop
      vertex 2.18 3.05176e-007 3.98426
      vertex 2.82 -0.0696065 3.93775
      vertex 2.82 3.05176e-007 3.98426
    endloop
  endfacet
  facet normal 0 -0.55557 0.83147
    outer loop
      vertex 2.82 -0.0696065 3.93775
      vertex 2.18 3.05176e-007 3.98426
      vertex 2.18 -0.0696065 3.93775
    endloop
  endfacet
  facet normal 0 -0.321431 0.946933
    outer loop
      vertex 2.18 0.154356 4.04819
      vertex 2.82 0.0750831 4.02128
      vertex 2.82 0.154356 4.04819
    endloop
  endfacet
  facet normal 0 -0.321431 0.946933
    outer loop
      vertex 2.82 0.0750831 4.02128
      vertex 2.18 0.154356 4.04819
      vertex 2.18 0.0750831 4.02128
    endloop
  endfacet
  facet normal 0 1 0
    outer loop
      vertex 2.18 0.32 3.43
      vertex 2.32352 0.32 4.07
      vertex 2.67648 0.32 3.43
    endloop
  endfacet
  facet normal 0 1 0
    outer loop
      vertex 2.32352 0.32 4.07
      vertex 2.18 0.32 3.43
      vertex 2.18 0.32 4.07
    endloop
  endfacet
  facet normal 0 1 0
    outer loop
      vertex 2.18 0.32 3.43
      vertex 2.67648 0.32 3.43
      vertex 2.82 0.32 3.43
    endloop
  endfacet
  facet normal 0 0 -1
    outer loop
      vertex 2.82 -0.319999 3.43
      vertex 2.82 5.34793e-017 3.43
      vertex 2.82 0.32 3.43
    endloop
  endfacet
  facet normal 0 0 -1
    outer loop
      vertex 2.18 5.34793e-017 3.43
      vertex 2.82 0.32 3.43
      vertex 2.82 5.34793e-017 3.43
    endloop
  endfacet
  facet normal -0 0 -1
    outer loop
      vertex 2.82 0.32 3.43
      vertex 2.18 5.34793e-017 3.43
      vertex 2.18 0.32 3.43
    endloop
  endfacet
  facet normal -1 0 0
    outer loop
      vertex 2.18 3 3.43
      vertex 2.18 8.56 4.07
      vertex 2.18 8.56 3.43
    endloop
  endfacet
  facet normal -1 -0 0
    outer loop
      vertex 2.18 8.56 4.07
      vertex 2.18 3 3.43
      vertex 2.18 3 4.07
    endloop
  endfacet
  facet normal -1 0 0
    outer loop
      vertex 2.18 0.32 3.43
      vertex 2.18 2.2 4.07
      vertex 2.18 2.2 3.43
    endloop
  endfacet
  facet normal -1 -0 0
    outer loop
      vertex 2.18 2.2 4.07
      vertex 2.18 0.32 3.43
      vertex 2.18 0.32 4.07
    endloop
  endfacet
  facet normal 1 -0 0
    outer loop
      vertex 2.82 3 4.07
      vertex 2.82 8.56 3.43
      vertex 2.82 8.56 4.07
    endloop
  endfacet
  facet normal 1 0 0
    outer loop
      vertex 2.82 8.56 3.43
      vertex 2.82 3 4.07
      vertex 2.82 3 3.43
    endloop
  endfacet
  facet normal 1 0 0
    outer loop
      vertex 2.82 2.2 4.07
      vertex 2.82 0.32 4.07
      vertex 2.82 2.2 3.43
    endloop
  endfacet
  facet normal 1 0 0
    outer loop
      vertex 2.82 2.2 3.43
      vertex 2.82 0.32 4.07
      vertex 2.82 0.32 3.43
    endloop
  endfacet
  facet normal 0 0 -1
    outer loop
      vertex 2.18 3 3.43
      vertex 2.82 8.56 3.43
      vertex 2.82 3 3.43
    endloop
  endfacet
  facet normal -0 0 -1
    outer loop
      vertex 2.82 8.56 3.43
      vertex 2.18 3 3.43
      vertex 2.18 8.56 3.43
    endloop
  endfacet
  facet normal 0 0 -1
    outer loop
      vertex 2.67648 0.32 3.43
      vertex 2.82 2.2 3.43
      vertex 2.82 0.32 3.43
    endloop
  endfacet
  facet normal 0 0 -1
    outer loop
      vertex 2.18 2.2 3.43
      vertex 2.67648 0.32 3.43
      vertex 2.18 0.32 3.43
    endloop
  endfacet
  facet normal 0 0 -1
    outer loop
      vertex 2.67648 0.32 3.43
      vertex 2.18 2.2 3.43
      vertex 2.82 2.2 3.43
    endloop
  endfacet
  facet normal 0 -1 0
    outer loop
      vertex 2.18 0.32 4.07
      vertex 2.32352 0.32 4.07
      vertex 2.82 0.32 4.07
    endloop
  endfacet
  facet normal 0 -1 0
    outer loop
      vertex 2.18 0.32 3.43
      vertex 2.32352 0.32 4.07
      vertex 2.18 0.32 4.07
    endloop
  endfacet
  facet normal 0 -1 -0
    outer loop
      vertex 2.32352 0.32 4.07
      vertex 2.18 0.32 3.43
      vertex 2.67648 0.32 3.43
    endloop
  endfacet
  facet normal -0 0 1
    outer loop
      vertex 2.18 8.56 4.07
      vertex 2.82 3 4.07
      vertex 2.82 8.56 4.07
    endloop
  endfacet
  facet normal 0 0 1
    outer loop
      vertex 2.82 3 4.07
      vertex 2.18 8.56 4.07
      vertex 2.18 3 4.07
    endloop
  endfacet
  facet normal -0 0 1
    outer loop
      vertex 2.18 2.2 4.07
      vertex 2.82 0.32 4.07
      vertex 2.82 2.2 4.07
    endloop
  endfacet
  facet normal 0 0 1
    outer loop
      vertex 2.82 0.32 4.07
      vertex 2.18 2.2 4.07
      vertex 2.18 0.32 4.07
    endloop
  endfacet
  facet normal -0.936329 0.351123 0
    outer loop
      vertex 2.18 8.56 3.43
      vertex 2.42 9.2 3.83
      vertex 2.42 9.2 3.67
    endloop
  endfacet
  facet normal -0.936329 0.351123 0
    outer loop
      vertex 2.42 9.2 3.83
      vertex 2.18 8.56 3.43
      vertex 2.18 8.56 4.07
    endloop
  endfacet
  facet normal 0 1 -0
    outer loop
      vertex 2.58 9.2 3.67
      vertex 2.42 9.2 3.83
      vertex 2.58 9.2 3.83
    endloop
  endfacet
  facet normal 0 1 0
    outer loop
      vertex 2.42 9.2 3.83
      vertex 2.58 9.2 3.67
      vertex 2.42 9.2 3.67
    endloop
  endfacet
  facet normal 0 0.351123 -0.936329
    outer loop
      vertex 2.82 8.56 3.43
      vertex 2.42 9.2 3.67
      vertex 2.58 9.2 3.67
    endloop
  endfacet
  facet normal 0 0.351123 -0.936329
    outer loop
      vertex 2.42 9.2 3.67
      vertex 2.82 8.56 3.43
      vertex 2.18 8.56 3.43
    endloop
  endfacet
  facet normal -0 0.351123 0.936329
    outer loop
      vertex 2.42 9.2 3.83
      vertex 2.82 8.56 4.07
      vertex 2.58 9.2 3.83
    endloop
  endfacet
  facet normal 0 0.351123 0.936329
    outer loop
      vertex 2.82 8.56 4.07
      vertex 2.42 9.2 3.83
      vertex 2.18 8.56 4.07
    endloop
  endfacet
  facet normal 0.936329 0.351123 0
    outer loop
      vertex 2.82 8.56 4.07
      vertex 2.58 9.2 3.67
      vertex 2.58 9.2 3.83
    endloop
  endfacet
  facet normal 0.936329 0.351123 0
    outer loop
      vertex 2.58 9.2 3.67
      vertex 2.82 8.56 4.07
      vertex 2.82 8.56 3.43
    endloop
  endfacet
  facet normal -1 0 0
    outer loop
      vertex 2.18 -0.32 -2.76
      vertex 2.18 0.32 3.43
      vertex 2.18 0.32 -2.76
    endloop
  endfacet
  facet normal -1 -0 0
    outer loop
      vertex 2.18 0.32 3.43
      vertex 2.18 -0.32 -2.76
      vertex 2.18 -0.32 3.43
    endloop
  endfacet
  facet normal 1 -0 0
    outer loop
      vertex 2.82 5.34793e-017 3.43
      vertex 2.82 0.32 -2.76
      vertex 2.82 0.32 3.43
    endloop
  endfacet
  facet normal 1 0 0
    outer loop
      vertex 2.82 -0.32 -2.76
      vertex 2.82 5.34793e-017 3.43
      vertex 2.82 -0.319999 3.43
    endloop
  endfacet
  facet normal 1 0 0
    outer loop
      vertex 2.82 -0.32 -2.76
      vertex 2.82 -0.319999 3.43
      vertex 2.82 -0.32 3.43
    endloop
  endfacet
  facet normal 1 0 0
    outer loop
      vertex 2.82 5.34793e-017 3.43
      vertex 2.82 -0.32 -2.76
      vertex 2.82 0.32 -2.76
    endloop
  endfacet
  facet normal 0 -1 0
    outer loop
      vertex 2.18 -0.32 -2.76
      vertex 2.82 -0.32 3.43
      vertex 2.18 -0.32 3.43
    endloop
  endfacet
  facet normal 0 -1 -0
    outer loop
      vertex 2.82 -0.32 3.43
      vertex 2.18 -0.32 -2.76
      vertex 2.82 -0.32 -2.76
    endloop
  endfacet
  facet normal 0 0 1
    outer loop
      vertex 2.82 0.32 3.43
      vertex 2.18 5.34793e-017 3.43
      vertex 2.82 5.34793e-017 3.43
    endloop
  endfacet
  facet normal 0 0 1
    outer loop
      vertex 2.18 -0.32 3.43
      vertex 2.18 5.34793e-017 3.43
      vertex 2.18 0.32 3.43
    endloop
  endfacet
  facet normal -0 0 1
    outer loop
      vertex 2.18 0.32 3.43
      vertex 2.18 5.34793e-017 3.43
      vertex 2.82 0.32 3.43
    endloop
  endfacet
  facet normal -0 0 1
    outer loop
      vertex 2.18 -0.319999 3.43
      vertex 2.82 -0.32 3.43
      vertex 2.82 -0.319999 3.43
    endloop
  endfacet
  facet normal 0 0 1
    outer loop
      vertex 2.18 -0.319999 3.43
      vertex 2.18 -0.32 3.43
      vertex 2.82 -0.32 3.43
    endloop
  endfacet
  facet normal 0 0 1
    outer loop
      vertex 2.18 5.34793e-017 3.43
      vertex 2.18 -0.32 3.43
      vertex 2.18 -0.319999 3.43
    endloop
  endfacet
  facet normal 0 1 -0
    outer loop
      vertex 2.82 0.32 -2.76
      vertex 2.18 0.32 3.43
      vertex 2.82 0.32 3.43
    endloop
  endfacet
  facet normal 0 1 0
    outer loop
      vertex 2.18 0.32 3.43
      vertex 2.82 0.32 -2.76
      vertex 2.18 0.32 -2.76
    endloop
  endfacet
  facet normal -0.936329 0 -0.351123
    outer loop
      vertex 2.42 -0.0799999 -3.4
      vertex 2.18 0.32 -2.76
      vertex 2.42 0.0799999 -3.4
    endloop
  endfacet
  facet normal -0.936329 -0 -0.351123
    outer loop
      vertex 2.18 0.32 -2.76
      vertex 2.42 -0.0799999 -3.4
      vertex 2.18 -0.32 -2.76
    endloop
  endfacet
  facet normal 0 0 -1
    outer loop
      vertex 2.42 -0.0799999 -3.4
      vertex 2.58 0.0799999 -3.4
      vertex 2.58 -0.0799999 -3.4
    endloop
  endfacet
  facet normal -0 0 -1
    outer loop
      vertex 2.58 0.0799999 -3.4
      vertex 2.42 -0.0799999 -3.4
      vertex 2.42 0.0799999 -3.4
    endloop
  endfacet
  facet normal 0 -0.936329 -0.351123
    outer loop
      vertex 2.42 -0.0799999 -3.4
      vertex 2.82 -0.32 -2.76
      vertex 2.18 -0.32 -2.76
    endloop
  endfacet
  facet normal 0 -0.936329 -0.351123
    outer loop
      vertex 2.82 -0.32 -2.76
      vertex 2.42 -0.0799999 -3.4
      vertex 2.58 -0.0799999 -3.4
    endloop
  endfacet
  facet normal 0 0.936329 -0.351123
    outer loop
      vertex 2.58 0.0799999 -3.4
      vertex 2.18 0.32 -2.76
      vertex 2.82 0.32 -2.76
    endloop
  endfacet
  facet normal 0 0.936329 -0.351123
    outer loop
      vertex 2.18 0.32 -2.76
      vertex 2.58 0.0799999 -3.4
      vertex 2.42 0.0799999 -3.4
    endloop
  endfacet
  facet normal 0.936329 0 -0.351123
    outer loop
      vertex 2.82 0.32 -2.76
      vertex 2.58 -0.0799999 -3.4
      vertex 2.58 0.0799999 -3.4
    endloop
  endfacet
  facet normal 0.936329 0 -0.351123
    outer loop
      vertex 2.58 -0.0799999 -3.4
      vertex 2.82 0.32 -2.76
      vertex 2.82 -0.32 -2.76
    endloop
  endfacet
  facet normal 1 -0 0
    outer loop
      vertex 5.32 0.236464 4.06452
      vertex 5.32 0.32 3.43
      vertex 5.32 0.32 4.07
    endloop
  endfacet
  facet normal 1 -0 0
    outer loop
      vertex 5.32 0.154356 4.04819
      vertex 5.32 0.32 3.43
      vertex 5.32 0.236464 4.06452
    endloop
  endfacet
  facet normal 1 -0 0
    outer loop
      vertex 5.32 0.0750831 4.02128
      vertex 5.32 0.32 3.43
      vertex 5.32 0.154356 4.04819
    endloop
  endfacet
  facet normal 1 -0 0
    outer loop
      vertex 5.32 3.05176e-007 3.98426
      vertex 5.32 0.32 3.43
      vertex 5.32 0.0750831 4.02128
    endloop
  endfacet
  facet normal 1 -0 0
    outer loop
      vertex 5.32 -0.0696065 3.93775
      vertex 5.32 0.32 3.43
      vertex 5.32 3.05176e-007 3.98426
    endloop
  endfacet
  facet normal 1 -0 0
    outer loop
      vertex 5.32 -0.132548 3.88255
      vertex 5.32 0.32 3.43
      vertex 5.32 -0.0696065 3.93775
    endloop
  endfacet
  facet normal 1 -0 0
    outer loop
      vertex 5.32 -0.187746 3.81961
      vertex 5.32 0.32 3.43
      vertex 5.32 -0.132548 3.88255
    endloop
  endfacet
  facet normal 1 -0 0
    outer loop
      vertex 5.32 -0.234255 3.75
      vertex 5.32 0.32 3.43
      vertex 5.32 -0.187746 3.81961
    endloop
  endfacet
  facet normal 1 -0 0
    outer loop
      vertex 5.32 -0.271283 3.67492
      vertex 5.32 0.32 3.43
      vertex 5.32 -0.234255 3.75
    endloop
  endfacet
  facet normal 1 -0 0
    outer loop
      vertex 5.32 -0.298192 3.59564
      vertex 5.32 0.32 3.43
      vertex 5.32 -0.271283 3.67492
    endloop
  endfacet
  facet normal 1 -0 0
    outer loop
      vertex 5.32 -0.314524 3.51354
      vertex 5.32 0.32 3.43
      vertex 5.32 -0.298192 3.59564
    endloop
  endfacet
  facet normal 1 0 0
    outer loop
      vertex 5.32 0.32 3.43
      vertex 5.32 -0.314524 3.51354
      vertex 5.32 -0.319999 3.43
    endloop
  endfacet
  facet normal -1 0 0
    outer loop
      vertex 4.68 0.32 3.43
      vertex 4.68 0.236464 4.06452
      vertex 4.68 0.32 4.07
    endloop
  endfacet
  facet normal -1 0 0
    outer loop
      vertex 4.68 0.32 3.43
      vertex 4.68 0.154356 4.04819
      vertex 4.68 0.236464 4.06452
    endloop
  endfacet
  facet normal -1 0 0
    outer loop
      vertex 4.68 0.32 3.43
      vertex 4.68 0.0750831 4.02128
      vertex 4.68 0.154356 4.04819
    endloop
  endfacet
  facet normal -1 0 0
    outer loop
      vertex 4.68 0.32 3.43
      vertex 4.68 3.05176e-007 3.98426
      vertex 4.68 0.0750831 4.02128
    endloop
  endfacet
  facet normal -1 0 0
    outer loop
      vertex 4.68 5.34793e-017 3.43
      vertex 4.68 3.05176e-007 3.98426
      vertex 4.68 0.32 3.43
    endloop
  endfacet
  facet normal -1 0 0
    outer loop
      vertex 4.68 5.34793e-017 3.43
      vertex 4.68 -0.0696065 3.93775
      vertex 4.68 3.05176e-007 3.98426
    endloop
  endfacet
  facet normal -1 0 0
    outer loop
      vertex 4.68 5.34793e-017 3.43
      vertex 4.68 -0.132548 3.88255
      vertex 4.68 -0.0696065 3.93775
    endloop
  endfacet
  facet normal -1 0 0
    outer loop
      vertex 4.68 5.34793e-017 3.43
      vertex 4.68 -0.187746 3.81961
      vertex 4.68 -0.132548 3.88255
    endloop
  endfacet
  facet normal -1 0 0
    outer loop
      vertex 4.68 5.34793e-017 3.43
      vertex 4.68 -0.234255 3.75
      vertex 4.68 -0.187746 3.81961
    endloop
  endfacet
  facet normal -1 0 0
    outer loop
      vertex 4.68 5.34793e-017 3.43
      vertex 4.68 -0.271283 3.67492
      vertex 4.68 -0.234255 3.75
    endloop
  endfacet
  facet normal -1 0 0
    outer loop
      vertex 4.68 5.34793e-017 3.43
      vertex 4.68 -0.298192 3.59564
      vertex 4.68 -0.271283 3.67492
    endloop
  endfacet
  facet normal -1 0 0
    outer loop
      vertex 4.68 5.34793e-017 3.43
      vertex 4.68 -0.314524 3.51354
      vertex 4.68 -0.298192 3.59564
    endloop
  endfacet
  facet normal -1 0 -0
    outer loop
      vertex 4.68 -0.314524 3.51354
      vertex 4.68 5.34793e-017 3.43
      vertex 4.68 -0.319999 3.43
    endloop
  endfacet
  facet normal 0 -0.83147 0.55557
    outer loop
      vertex 4.68 -0.234255 3.75
      vertex 5.32 -0.187746 3.81961
      vertex 4.68 -0.187746 3.81961
    endloop
  endfacet
  facet normal 0 -0.83147 0.55557
    outer loop
      vertex 5.32 -0.187746 3.81961
      vertex 4.68 -0.234255 3.75
      vertex 5.32 -0.234255 3.75
    endloop
  endfacet
  facet normal 0 -0.0654007 0.997859
    outer loop
      vertex 4.82352 0.32 4.07
      vertex 5.32 0.236464 4.06452
      vertex 5.32 0.32 4.07
    endloop
  endfacet
  facet normal 0 -0.0654007 0.997859
    outer loop
      vertex 4.68 0.236464 4.06452
      vertex 4.82352 0.32 4.07
      vertex 4.68 0.32 4.07
    endloop
  endfacet
  facet normal 0 -0.0654007 0.997859
    outer loop
      vertex 4.82352 0.32 4.07
      vertex 4.68 0.236464 4.06452
      vertex 5.32 0.236464 4.06452
    endloop
  endfacet
  facet normal 0 -0.980784 0.195095
    outer loop
      vertex 4.68 -0.314524 3.51354
      vertex 5.32 -0.298192 3.59564
      vertex 4.68 -0.298192 3.59564
    endloop
  endfacet
  facet normal 0 -0.980784 0.195095
    outer loop
      vertex 5.32 -0.298192 3.59564
      vertex 4.68 -0.314524 3.51354
      vertex 5.32 -0.314524 3.51354
    endloop
  endfacet
  facet normal 0 -0.751843 0.659342
    outer loop
      vertex 4.68 -0.187746 3.81961
      vertex 5.32 -0.132548 3.88255
      vertex 4.68 -0.132548 3.88255
    endloop
  endfacet
  facet normal 0 -0.751843 0.659342
    outer loop
      vertex 5.32 -0.132548 3.88255
      vertex 4.68 -0.187746 3.81961
      vertex 5.32 -0.187746 3.81961
    endloop
  endfacet
  facet normal 0 -0.946933 0.321431
    outer loop
      vertex 4.68 -0.298192 3.59564
      vertex 5.32 -0.271283 3.67492
      vertex 4.68 -0.271283 3.67492
    endloop
  endfacet
  facet normal 0 -0.946933 0.321431
    outer loop
      vertex 5.32 -0.271283 3.67492
      vertex 4.68 -0.298192 3.59564
      vertex 5.32 -0.298192 3.59564
    endloop
  endfacet
  facet normal 0 -0.997859 0.0654007
    outer loop
      vertex 4.68 -0.319999 3.43
      vertex 5.32 -0.314524 3.51354
      vertex 4.68 -0.314524 3.51354
    endloop
  endfacet
  facet normal 0 -0.997859 0.0654007
    outer loop
      vertex 5.32 -0.319999 3.43
      vertex 5.32 -0.314524 3.51354
      vertex 4.68 -0.319999 3.43
    endloop
  endfacet
  facet normal 0 -0.442292 0.896871
    outer loop
      vertex 4.68 0.0750831 4.02128
      vertex 5.32 3.05176e-007 3.98426
      vertex 5.32 0.0750831 4.02128
    endloop
  endfacet
  facet normal 0 -0.442292 0.896871
    outer loop
      vertex 5.32 3.05176e-007 3.98426
      vertex 4.68 0.0750831 4.02128
      vertex 4.68 3.05176e-007 3.98426
    endloop
  endfacet
  facet normal 0 -0.195095 0.980784
    outer loop
      vertex 4.68 0.236464 4.06452
      vertex 5.32 0.154356 4.04819
      vertex 5.32 0.236464 4.06452
    endloop
  endfacet
  facet normal 0 -0.195095 0.980784
    outer loop
      vertex 5.32 0.154356 4.04819
      vertex 4.68 0.236464 4.06452
      vertex 4.68 0.154356 4.04819
    endloop
  endfacet
  facet normal 0 -0.89687 0.442295
    outer loop
      vertex 4.68 -0.271283 3.67492
      vertex 5.32 -0.234255 3.75
      vertex 4.68 -0.234255 3.75
    endloop
  endfacet
  facet normal 0 -0.89687 0.442295
    outer loop
      vertex 5.32 -0.234255 3.75
      vertex 4.68 -0.271283 3.67492
      vertex 5.32 -0.271283 3.67492
    endloop
  endfacet
  facet normal 0 -0.659342 0.751843
    outer loop
      vertex 4.68 -0.0696065 3.93775
      vertex 5.32 -0.132548 3.88255
      vertex 5.32 -0.0696065 3.93775
    endloop
  endfacet
  facet normal 0 -0.659342 0.751843
    outer loop
      vertex 5.32 -0.132548 3.88255
      vertex 4.68 -0.0696065 3.93775
      vertex 4.68 -0.132548 3.88255
    endloop
  endfacet
  facet normal 0 -0.55557 0.83147
    outer loop
      vertex 4.68 3.05176e-007 3.98426
      vertex 5.32 -0.0696065 3.93775
      vertex 5.32 3.05176e-007 3.98426
    endloop
  endfacet
  facet normal 0 -0.55557 0.83147
    outer loop
      vertex 5.32 -0.0696065 3.93775
      vertex 4.68 3.05176e-007 3.98426
      vertex 4.68 -0.0696065 3.93775
    endloop
  endfacet
  facet normal 0 -0.321431 0.946933
    outer loop
      vertex 4.68 0.154356 4.04819
      vertex 5.32 0.0750831 4.02128
      vertex 5.32 0.154356 4.04819
    endloop
  endfacet
  facet normal 0 -0.321431 0.946933
    outer loop
      vertex 5.32 0.0750831 4.02128
      vertex 4.68 0.154356 4.04819
      vertex 4.68 0.0750831 4.02128
    endloop
  endfacet
  facet normal 0 1 0
    outer loop
      vertex 4.68 0.32 3.43
      vertex 4.82352 0.32 4.07
      vertex 5.17648 0.32 3.43
    endloop
  endfacet
  facet normal 0 1 0
    outer loop
      vertex 4.82352 0.32 4.07
      vertex 4.68 0.32 3.43
      vertex 4.68 0.32 4.07
    endloop
  endfacet
  facet normal 0 1 0
    outer loop
      vertex 4.68 0.32 3.43
      vertex 5.17648 0.32 3.43
      vertex 5.32 0.32 3.43
    endloop
  endfacet
  facet normal 0 0 -1
    outer loop
      vertex 5.32 -0.319999 3.43
      vertex 5.32 5.34793e-017 3.43
      vertex 5.32 0.32 3.43
    endloop
  endfacet
  facet normal 0 0 -1
    outer loop
      vertex 4.68 5.34793e-017 3.43
      vertex 5.32 0.32 3.43
      vertex 5.32 5.34793e-017 3.43
    endloop
  endfacet
  facet normal -0 0 -1
    outer loop
      vertex 5.32 0.32 3.43
      vertex 4.68 5.34793e-017 3.43
      vertex 4.68 0.32 3.43
    endloop
  endfacet
  facet normal -1 0 0
    outer loop
      vertex 4.68 3 3.43
      vertex 4.68 8.56 4.07
      vertex 4.68 8.56 3.43
    endloop
  endfacet
  facet normal -1 -0 0
    outer loop
      vertex 4.68 8.56 4.07
      vertex 4.68 3 3.43
      vertex 4.68 3 4.07
    endloop
  endfacet
  facet normal -1 0 0
    outer loop
      vertex 4.68 0.32 3.43
      vertex 4.68 2.2 4.07
      vertex 4.68 2.2 3.43
    endloop
  endfacet
  facet normal -1 -0 0
    outer loop
      vertex 4.68 2.2 4.07
      vertex 4.68 0.32 3.43
      vertex 4.68 0.32 4.07
    endloop
  endfacet
  facet normal 1 -0 0
    outer loop
      vertex 5.32 3 4.07
      vertex 5.32 8.56 3.43
      vertex 5.32 8.56 4.07
    endloop
  endfacet
  facet normal 1 0 0
    outer loop
      vertex 5.32 8.56 3.43
      vertex 5.32 3 4.07
      vertex 5.32 3 3.43
    endloop
  endfacet
  facet normal 1 0 0
    outer loop
      vertex 5.32 2.2 4.07
      vertex 5.32 0.32 4.07
      vertex 5.32 2.2 3.43
    endloop
  endfacet
  facet normal 1 0 0
    outer loop
      vertex 5.32 2.2 3.43
      vertex 5.32 0.32 4.07
      vertex 5.32 0.32 3.43
    endloop
  endfacet
  facet normal 0 0 -1
    outer loop
      vertex 4.68 3 3.43
      vertex 5.32 8.56 3.43
      vertex 5.32 3 3.43
    endloop
  endfacet
  facet normal -0 0 -1
    outer loop
      vertex 5.32 8.56 3.43
      vertex 4.68 3 3.43
      vertex 4.68 8.56 3.43
    endloop
  endfacet
  facet normal 0 0 -1
    outer loop
      vertex 5.17648 0.32 3.43
      vertex 5.32 2.2 3.43
      vertex 5.32 0.32 3.43
    endloop
  endfacet
  facet normal 0 0 -1
    outer loop
      vertex 4.68 2.2 3.43
      vertex 5.17648 0.32 3.43
      vertex 4.68 0.32 3.43
    endloop
  endfacet
  facet normal 0 0 -1
    outer loop
      vertex 5.17648 0.32 3.43
      vertex 4.68 2.2 3.43
      vertex 5.32 2.2 3.43
    endloop
  endfacet
  facet normal 0 -1 0
    outer loop
      vertex 4.68 0.32 4.07
      vertex 4.82352 0.32 4.07
      vertex 5.32 0.32 4.07
    endloop
  endfacet
  facet normal 0 -1 0
    outer loop
      vertex 4.68 0.32 3.43
      vertex 4.82352 0.32 4.07
      vertex 4.68 0.32 4.07
    endloop
  endfacet
  facet normal 0 -1 -0
    outer loop
      vertex 4.82352 0.32 4.07
      vertex 4.68 0.32 3.43
      vertex 5.17648 0.32 3.43
    endloop
  endfacet
  facet normal -0 0 1
    outer loop
      vertex 4.68 8.56 4.07
      vertex 5.32 3 4.07
      vertex 5.32 8.56 4.07
    endloop
  endfacet
  facet normal 0 0 1
    outer loop
      vertex 5.32 3 4.07
      vertex 4.68 8.56 4.07
      vertex 4.68 3 4.07
    endloop
  endfacet
  facet normal -0 0 1
    outer loop
      vertex 4.68 2.2 4.07
      vertex 5.32 0.32 4.07
      vertex 5.32 2.2 4.07
    endloop
  endfacet
  facet normal 0 0 1
    outer loop
      vertex 5.32 0.32 4.07
      vertex 4.68 2.2 4.07
      vertex 4.68 0.32 4.07
    endloop
  endfacet
  facet normal -0.936329 0.351123 0
    outer loop
      vertex 4.68 8.56 3.43
      vertex 4.92 9.2 3.83
      vertex 4.92 9.2 3.67
    endloop
  endfacet
  facet normal -0.936329 0.351123 0
    outer loop
      vertex 4.92 9.2 3.83
      vertex 4.68 8.56 3.43
      vertex 4.68 8.56 4.07
    endloop
  endfacet
  facet normal 0 1 -0
    outer loop
      vertex 5.08 9.2 3.67
      vertex 4.92 9.2 3.83
      vertex 5.08 9.2 3.83
    endloop
  endfacet
  facet normal 0 1 0
    outer loop
      vertex 4.92 9.2 3.83
      vertex 5.08 9.2 3.67
      vertex 4.92 9.2 3.67
    endloop
  endfacet
  facet normal 0 0.351123 -0.936329
    outer loop
      vertex 5.32 8.56 3.43
      vertex 4.92 9.2 3.67
      vertex 5.08 9.2 3.67
    endloop
  endfacet
  facet normal 0 0.351123 -0.936329
    outer loop
      vertex 4.92 9.2 3.67
      vertex 5.32 8.56 3.43
      vertex 4.68 8.56 3.43
    endloop
  endfacet
  facet normal -0 0.351123 0.936329
    outer loop
      vertex 4.92 9.2 3.83
      vertex 5.32 8.56 4.07
      vertex 5.08 9.2 3.83
    endloop
  endfacet
  facet normal 0 0.351123 0.936329
    outer loop
      vertex 5.32 8.56 4.07
      vertex 4.92 9.2 3.83
      vertex 4.68 8.56 4.07
    endloop
  endfacet
  facet normal 0.936329 0.351123 0
    outer loop
      vertex 5.32 8.56 4.07
      vertex 5.08 9.2 3.67
      vertex 5.08 9.2 3.83
    endloop
  endfacet
  facet normal 0.936329 0.351123 0
    outer loop
      vertex 5.08 9.2 3.67
      vertex 5.32 8.56 4.07
      vertex 5.32 8.56 3.43
    endloop
  endfacet
  facet normal -1 0 0
    outer loop
      vertex 4.68 -0.32 -2.76
      vertex 4.68 0.32 3.43
      vertex 4.68 0.32 -2.76
    endloop
  endfacet
  facet normal -1 -0 0
    outer loop
      vertex 4.68 0.32 3.43
      vertex 4.68 -0.32 -2.76
      vertex 4.68 -0.32 3.43
    endloop
  endfacet
  facet normal 1 -0 0
    outer loop
      vertex 5.32 5.34793e-017 3.43
      vertex 5.32 0.32 -2.76
      vertex 5.32 0.32 3.43
    endloop
  endfacet
  facet normal 1 0 0
    outer loop
      vertex 5.32 -0.32 -2.76
      vertex 5.32 5.34793e-017 3.43
      vertex 5.32 -0.319999 3.43
    endloop
  endfacet
  facet normal 1 0 0
    outer loop
      vertex 5.32 -0.32 -2.76
      vertex 5.32 -0.319999 3.43
      vertex 5.32 -0.32 3.43
    endloop
  endfacet
  facet normal 1 0 0
    outer loop
      vertex 5.32 5.34793e-017 3.43
      vertex 5.32 -0.32 -2.76
      vertex 5.32 0.32 -2.76
    endloop
  endfacet
  facet normal 0 -1 0
    outer loop
      vertex 4.68 -0.32 -2.76
      vertex 5.32 -0.32 3.43
      vertex 4.68 -0.32 3.43
    endloop
  endfacet
  facet normal 0 -1 -0
    outer loop
      vertex 5.32 -0.32 3.43
      vertex 4.68 -0.32 -2.76
      vertex 5.32 -0.32 -2.76
    endloop
  endfacet
  facet normal 0 0 1
    outer loop
      vertex 5.32 0.32 3.43
      vertex 4.68 5.34793e-017 3.43
      vertex 5.32 5.34793e-017 3.43
    endloop
  endfacet
  facet normal 0 0 1
    outer loop
      vertex 4.68 -0.32 3.43
      vertex 4.68 5.34793e-017 3.43
      vertex 4.68 0.32 3.43
    endloop
  endfacet
  facet normal -0 0 1
    outer loop
      vertex 4.68 0.32 3.43
      vertex 4.68 5.34793e-017 3.43
      vertex 5.32 0.32 3.43
    endloop
  endfacet
  facet normal -0 0 1
    outer loop
      vertex 4.68 -0.319999 3.43
      vertex 5.32 -0.32 3.43
      vertex 5.32 -0.319999 3.43
    endloop
  endfacet
  facet normal 0 0 1
    outer loop
      vertex 4.68 -0.319999 3.43
      vertex 4.68 -0.32 3.43
      vertex 5.32 -0.32 3.43
    endloop
  endfacet
  facet normal 0 0 1
    outer loop
      vertex 4.68 5.34793e-017 3.43
      vertex 4.68 -0.32 3.43
      vertex 4.68 -0.319999 3.43
    endloop
  endfacet
  facet normal 0 1 -0
    outer loop
      vertex 5.32 0.32 -2.76
      vertex 4.68 0.32 3.43
      vertex 5.32 0.32 3.43
    endloop
  endfacet
  facet normal 0 1 0
    outer loop
      vertex 4.68 0.32 3.43
      vertex 5.32 0.32 -2.76
      vertex 4.68 0.32 -2.76
    endloop
  endfacet
  facet normal -0.936329 0 -0.351123
    outer loop
      vertex 4.92 -0.0799999 -3.4
      vertex 4.68 0.32 -2.76
      vertex 4.92 0.0799999 -3.4
    endloop
  endfacet
  facet normal -0.936329 -0 -0.351123
    outer loop
      vertex 4.68 0.32 -2.76
      vertex 4.92 -0.0799999 -3.4
      vertex 4.68 -0.32 -2.76
    endloop
  endfacet
  facet normal 0 0 -1
    outer loop
      vertex 4.92 -0.0799999 -3.4
      vertex 5.08 0.0799999 -3.4
      vertex 5.08 -0.0799999 -3.4
    endloop
  endfacet
  facet normal -0 0 -1
    outer loop
      vertex 5.08 0.0799999 -3.4
      vertex 4.92 -0.0799999 -3.4
      vertex 4.92 0.0799999 -3.4
    endloop
  endfacet
  facet normal 0 -0.936329 -0.351123
    outer loop
      vertex 4.92 -0.0799999 -3.4
      vertex 5.32 -0.32 -2.76
      vertex 4.68 -0.32 -2.76
    endloop
  endfacet
  facet normal 0 -0.936329 -0.351123
    outer loop
      vertex 5.32 -0.32 -2.76
      vertex 4.92 -0.0799999 -3.4
      vertex 5.08 -0.0799999 -3.4
    endloop
  endfacet
  facet normal 0 0.936329 -0.351123
    outer loop
      vertex 5.08 0.0799999 -3.4
      vertex 4.68 0.32 -2.76
      vertex 5.32 0.32 -2.76
    endloop
  endfacet
  facet normal 0 0.936329 -0.351123
    outer loop
      vertex 4.68 0.32 -2.76
      vertex 5.08 0.0799999 -3.4
      vertex 4.92 0.0799999 -3.4
    endloop
  endfacet
  facet normal 0.936329 0 -0.351123
    outer loop
      vertex 5.32 0.32 -2.76
      vertex 5.08 -0.0799999 -3.4
      vertex 5.08 0.0799999 -3.4
    endloop
  endfacet
  facet normal 0.936329 0 -0.351123
    outer loop
      vertex 5.08 -0.0799999 -3.4
      vertex 5.32 0.32 -2.76
      vertex 5.32 -0.32 -2.76
    endloop
  endfacet
endsolid OpenSCAD_Model
