solid OpenSCAD_Model
  facet normal 1 0 0
    outer loop
      vertex 2.5 2 1.35
      vertex 2.5 1 0.15
      vertex 2.5 2 0
    endloop
  endfacet
  facet normal 1 0 0
    outer loop
      vertex 2.5 2 1.35
      vertex 2.5 -1 0.15
      vertex 2.5 1 0.15
    endloop
  endfacet
  facet normal 1 -0 0
    outer loop
      vertex 2.5 -2 1.35
      vertex 2.5 -1 0.15
      vertex 2.5 2 1.35
    endloop
  endfacet
  facet normal 1 0 0
    outer loop
      vertex 2.5 -2 0
      vertex 2.5 -1 0.15
      vertex 2.5 -2 1.35
    endloop
  endfacet
  facet normal 1 0 0
    outer loop
      vertex 2.5 -1 0.15
      vertex 2.5 -2 0
      vertex 2.5 -1 0
    endloop
  endfacet
  facet normal 1 0 0
    outer loop
      vertex 2.5 2 0
      vertex 2.5 1 0.15
      vertex 2.5 1 0
    endloop
  endfacet
  facet normal 0.965925 -0.258822 0
    outer loop
      vertex 2.43301 -2.25 1.35
      vertex 2.5 -2 0
      vertex 2.5 -2 1.35
    endloop
  endfacet
  facet normal 0.965925 -0.258822 0
    outer loop
      vertex 2.5 -2 0
      vertex 2.43301 -2.25 1.35
      vertex 2.43301 -2.25 0
    endloop
  endfacet
  facet normal -0.258822 0.965925 0
    outer loop
      vertex -2 2.5 0
      vertex -2.25 2.43301 1.35
      vertex -2 2.5 1.35
    endloop
  endfacet
  facet normal -0.258822 0.965925 0
    outer loop
      vertex -2.25 2.43301 1.35
      vertex -2 2.5 0
      vertex -2.25 2.43301 0
    endloop
  endfacet
  facet normal 0 0 -1
    outer loop
      vertex 1.75 -3.25 0
      vertex -1.75 -3.25 0
      vertex 1.75 -2.5 0
    endloop
  endfacet
  facet normal 0 0 -1
    outer loop
      vertex 2 -2.5 0
      vertex 2.5 -2 0
      vertex 2.43301 -2.25 0
    endloop
  endfacet
  facet normal 0 0 -1
    outer loop
      vertex 2 -2.5 0
      vertex 2.43301 -2.25 0
      vertex 2.25 -2.43301 0
    endloop
  endfacet
  facet normal 0 0 -1
    outer loop
      vertex 2.5 -2 0
      vertex 2 -2.5 0
      vertex 1.75 -2.5 0
    endloop
  endfacet
  facet normal -0 0 -1
    outer loop
      vertex 2.5 -2 0
      vertex 1.75 -2.5 0
      vertex 2.5 -1 0
    endloop
  endfacet
  facet normal 0 0 -1
    outer loop
      vertex -1.75 -2.5 0
      vertex 1.75 -2.5 0
      vertex -1.75 -3.25 0
    endloop
  endfacet
  facet normal 0 0 -1
    outer loop
      vertex 1.75 -2.5 0
      vertex -1.75 -2.5 0
      vertex 2.5 -1 0
    endloop
  endfacet
  facet normal 0 0 -1
    outer loop
      vertex -2.5 -2 0
      vertex -1.75 -2.5 0
      vertex -2 -2.5 0
    endloop
  endfacet
  facet normal 0 0 -1
    outer loop
      vertex -2.5 -2 0
      vertex -2 -2.5 0
      vertex -2.25 -2.43301 0
    endloop
  endfacet
  facet normal 0 0 -1
    outer loop
      vertex -2.5 -2 0
      vertex -2.25 -2.43301 0
      vertex -2.43301 -2.25 0
    endloop
  endfacet
  facet normal 0 0 -1
    outer loop
      vertex -1.75 -2.5 0
      vertex -2.5 -2 0
      vertex -2.5 -1 0
    endloop
  endfacet
  facet normal 0 0 -1
    outer loop
      vertex -1.75 -2.5 0
      vertex -2.5 -1 0
      vertex 2.5 -1 0
    endloop
  endfacet
  facet normal 0 0 -1
    outer loop
      vertex 1.75 2.5 0
      vertex 2.5 2 0
      vertex 2.5 1 0
    endloop
  endfacet
  facet normal -0 -0 -1
    outer loop
      vertex 2 2.5 0
      vertex 2.5 2 0
      vertex 1.75 2.5 0
    endloop
  endfacet
  facet normal 0 0 -1
    outer loop
      vertex 2.43301 2.25 0
      vertex 2 2.5 0
      vertex 2.25 2.43301 0
    endloop
  endfacet
  facet normal 0 0 -1
    outer loop
      vertex 2.5 2 0
      vertex 2 2.5 0
      vertex 2.43301 2.25 0
    endloop
  endfacet
  facet normal 0 0 -1
    outer loop
      vertex 1.75 2.5 0
      vertex -1.75 2.5 0
      vertex 1.75 3.25 0
    endloop
  endfacet
  facet normal 0 0 -1
    outer loop
      vertex 2.5 1 0
      vertex -1.75 2.5 0
      vertex 1.75 2.5 0
    endloop
  endfacet
  facet normal 0 0 -1
    outer loop
      vertex -2.5 1 0
      vertex -1.75 2.5 0
      vertex 2.5 1 0
    endloop
  endfacet
  facet normal 0 0 -1
    outer loop
      vertex -2.5 2 0
      vertex -1.75 2.5 0
      vertex -2.5 1 0
    endloop
  endfacet
  facet normal -0 0 -1
    outer loop
      vertex -1.75 2.5 0
      vertex -2.5 2 0
      vertex -2 2.5 0
    endloop
  endfacet
  facet normal 0 0 -1
    outer loop
      vertex -2 2.5 0
      vertex -2.5 2 0
      vertex -2.25 2.43301 0
    endloop
  endfacet
  facet normal 0 0 -1
    outer loop
      vertex -2.25 2.43301 0
      vertex -2.5 2 0
      vertex -2.43301 2.25 0
    endloop
  endfacet
  facet normal -0 0 -1
    outer loop
      vertex 1.75 3.25 0
      vertex -1.75 2.5 0
      vertex -1.75 3.25 0
    endloop
  endfacet
  facet normal 0 0 1
    outer loop
      vertex 2.20777 1.8875 1.35
      vertex 2.5 2 1.35
      vertex 2.43301 2.25 1.35
    endloop
  endfacet
  facet normal 0 0 1
    outer loop
      vertex 2.5 2 1.35
      vertex 2.325 1.45 1.35
      vertex 2.5 -2 1.35
    endloop
  endfacet
  facet normal -0 0 1
    outer loop
      vertex 2.325 -1.45 1.35
      vertex 2.5 -2 1.35
      vertex 2.325 1.45 1.35
    endloop
  endfacet
  facet normal 0 0 1
    outer loop
      vertex 2.20777 1.8875 1.35
      vertex 2.43301 2.25 1.35
      vertex 2.25 2.43301 1.35
    endloop
  endfacet
  facet normal 0 0 1
    outer loop
      vertex 2.5 2 1.35
      vertex 2.20777 1.8875 1.35
      vertex 2.325 1.45 1.35
    endloop
  endfacet
  facet normal 0 0 1
    outer loop
      vertex 1.8875 2.20777 1.35
      vertex 2.25 2.43301 1.35
      vertex 2 2.5 1.35
    endloop
  endfacet
  facet normal 0 0 1
    outer loop
      vertex 2.25 2.43301 1.35
      vertex 1.8875 2.20777 1.35
      vertex 2.20777 1.8875 1.35
    endloop
  endfacet
  facet normal 0 0 1
    outer loop
      vertex 2 2.5 1.35
      vertex 1.45 2.325 1.35
      vertex 1.8875 2.20777 1.35
    endloop
  endfacet
  facet normal 0 0 1
    outer loop
      vertex 2 2.5 1.35
      vertex -1.45 2.325 1.35
      vertex 1.45 2.325 1.35
    endloop
  endfacet
  facet normal -0 0 1
    outer loop
      vertex -2 2.5 1.35
      vertex -1.45 2.325 1.35
      vertex 2 2.5 1.35
    endloop
  endfacet
  facet normal 0 0 1
    outer loop
      vertex -2 2.5 1.35
      vertex -1.8875 2.20777 1.35
      vertex -1.45 2.325 1.35
    endloop
  endfacet
  facet normal -0 0 1
    outer loop
      vertex -2.25 2.43301 1.35
      vertex -1.8875 2.20777 1.35
      vertex -2 2.5 1.35
    endloop
  endfacet
  facet normal 0 0 1
    outer loop
      vertex -1.8875 2.20777 1.35
      vertex -2.25 2.43301 1.35
      vertex -2.20777 1.8875 1.35
    endloop
  endfacet
  facet normal -0 0 1
    outer loop
      vertex -2.43301 2.25 1.35
      vertex -2.20777 1.8875 1.35
      vertex -2.25 2.43301 1.35
    endloop
  endfacet
  facet normal 0 0 1
    outer loop
      vertex -2.20777 1.8875 1.35
      vertex -2.5 2 1.35
      vertex -2.325 1.45 1.35
    endloop
  endfacet
  facet normal 0 0 1
    outer loop
      vertex -2.20777 1.8875 1.35
      vertex -2.43301 2.25 1.35
      vertex -2.5 2 1.35
    endloop
  endfacet
  facet normal -0 0 1
    outer loop
      vertex 2.20777 -1.8875 1.35
      vertex 2.5 -2 1.35
      vertex 2.325 -1.45 1.35
    endloop
  endfacet
  facet normal 0 0 1
    outer loop
      vertex 2.5 -2 1.35
      vertex 2.20777 -1.8875 1.35
      vertex 2.43301 -2.25 1.35
    endloop
  endfacet
  facet normal 0 0 1
    outer loop
      vertex 2.43301 -2.25 1.35
      vertex 2.20777 -1.8875 1.35
      vertex 2.25 -2.43301 1.35
    endloop
  endfacet
  facet normal -0 0 1
    outer loop
      vertex 1.8875 -2.20777 1.35
      vertex 2.25 -2.43301 1.35
      vertex 2.20777 -1.8875 1.35
    endloop
  endfacet
  facet normal 0 0 1
    outer loop
      vertex 2.25 -2.43301 1.35
      vertex 1.8875 -2.20777 1.35
      vertex 2 -2.5 1.35
    endloop
  endfacet
  facet normal -0 0 1
    outer loop
      vertex 1.45 -2.325 1.35
      vertex 2 -2.5 1.35
      vertex 1.8875 -2.20777 1.35
    endloop
  endfacet
  facet normal -0 0 1
    outer loop
      vertex -1.45 -2.325 1.35
      vertex 2 -2.5 1.35
      vertex 1.45 -2.325 1.35
    endloop
  endfacet
  facet normal 0 0 1
    outer loop
      vertex -1.45 -2.325 1.35
      vertex -2 -2.5 1.35
      vertex 2 -2.5 1.35
    endloop
  endfacet
  facet normal 0 0 1
    outer loop
      vertex -1.8875 -2.20777 1.35
      vertex -2 -2.5 1.35
      vertex -1.45 -2.325 1.35
    endloop
  endfacet
  facet normal 0 0 1
    outer loop
      vertex -2.20777 -1.8875 1.35
      vertex -2 -2.5 1.35
      vertex -1.8875 -2.20777 1.35
    endloop
  endfacet
  facet normal 0 0 1
    outer loop
      vertex -2.325 1.45 1.35
      vertex -2.5 2 1.35
      vertex -2.325 -1.45 1.35
    endloop
  endfacet
  facet normal 0 0 1
    outer loop
      vertex -2.20777 -1.8875 1.35
      vertex -2.5 -2 1.35
      vertex -2 -2.5 1.35
    endloop
  endfacet
  facet normal 0 0 1
    outer loop
      vertex -2.325 -1.45 1.35
      vertex -2.5 -2 1.35
      vertex -2.20777 -1.8875 1.35
    endloop
  endfacet
  facet normal 0 0 1
    outer loop
      vertex -2.5 -2 1.35
      vertex -2.325 -1.45 1.35
      vertex -2.5 2 1.35
    endloop
  endfacet
  facet normal -0.258822 -0.965925 0
    outer loop
      vertex -2.25 -2.43301 0
      vertex -2 -2.5 1
      vertex -2.25 -2.43301 1
    endloop
  endfacet
  facet normal -0.258822 -0.965925 -0
    outer loop
      vertex -2 -2.5 1
      vertex -2.25 -2.43301 0
      vertex -2 -2.5 0
    endloop
  endfacet
  facet normal -1 0 0
    outer loop
      vertex -2.5 -1 0
      vertex -2.5 -2 0
      vertex -2.5 -1 0.15
    endloop
  endfacet
  facet normal -1 0 0
    outer loop
      vertex -2.5 1 0.15
      vertex -2.5 2 0
      vertex -2.5 1 0
    endloop
  endfacet
  facet normal -1 0 0
    outer loop
      vertex -2.5 2 0
      vertex -2.5 1 0.15
      vertex -2.5 2 1.35
    endloop
  endfacet
  facet normal -1 0 0
    outer loop
      vertex -2.5 -1 0.15
      vertex -2.5 2 1.35
      vertex -2.5 1 0.15
    endloop
  endfacet
  facet normal -1 0 0
    outer loop
      vertex -2.5 -2 1
      vertex -2.5 -1 0.15
      vertex -2.5 -2 0
    endloop
  endfacet
  facet normal -1 0 0
    outer loop
      vertex -2.5 -2 1.35
      vertex -2.5 -1 0.15
      vertex -2.5 -2 1
    endloop
  endfacet
  facet normal -1 0 0
    outer loop
      vertex -2.5 -1 0.15
      vertex -2.5 -2 1.35
      vertex -2.5 2 1.35
    endloop
  endfacet
  facet normal 0.707109 0.707105 0
    outer loop
      vertex 2.43301 2.25 1.35
      vertex 2.25 2.43301 0
      vertex 2.25 2.43301 1.35
    endloop
  endfacet
  facet normal 0.707109 0.707105 0
    outer loop
      vertex 2.25 2.43301 0
      vertex 2.43301 2.25 1.35
      vertex 2.43301 2.25 0
    endloop
  endfacet
  facet normal 0.258822 -0.965925 0
    outer loop
      vertex 2 -2.5 0
      vertex 2.25 -2.43301 1.35
      vertex 2 -2.5 1.35
    endloop
  endfacet
  facet normal 0.258822 -0.965925 0
    outer loop
      vertex 2.25 -2.43301 1.35
      vertex 2 -2.5 0
      vertex 2.25 -2.43301 0
    endloop
  endfacet
  facet normal 0 -1 0
    outer loop
      vertex -2 -2.5 0
      vertex -1.75 -2.5 0.15
      vertex -2 -2.5 1
    endloop
  endfacet
  facet normal 0 -1 -0
    outer loop
      vertex -1.75 -2.5 0.15
      vertex -2 -2.5 0
      vertex -1.75 -2.5 0
    endloop
  endfacet
  facet normal 0 -1 0
    outer loop
      vertex -2 -2.5 1
      vertex 2 -2.5 1.35
      vertex -2 -2.5 1.35
    endloop
  endfacet
  facet normal 0 -1 0
    outer loop
      vertex -1.75 -2.5 0.15
      vertex 2 -2.5 1.35
      vertex -2 -2.5 1
    endloop
  endfacet
  facet normal 0 -1 0
    outer loop
      vertex 1.75 -2.5 0.15
      vertex 2 -2.5 1.35
      vertex -1.75 -2.5 0.15
    endloop
  endfacet
  facet normal 0 -1 0
    outer loop
      vertex 2 -2.5 0
      vertex 1.75 -2.5 0.15
      vertex 1.75 -2.5 0
    endloop
  endfacet
  facet normal 0 -1 0
    outer loop
      vertex 1.75 -2.5 0.15
      vertex 2 -2.5 0
      vertex 2 -2.5 1.35
    endloop
  endfacet
  facet normal -0.965925 0.258822 0
    outer loop
      vertex -2.5 2 0
      vertex -2.43301 2.25 1.35
      vertex -2.43301 2.25 0
    endloop
  endfacet
  facet normal -0.965925 0.258822 0
    outer loop
      vertex -2.43301 2.25 1.35
      vertex -2.5 2 0
      vertex -2.5 2 1.35
    endloop
  endfacet
  facet normal -0.707107 0.707107 0
    outer loop
      vertex -2.43301 2.25 0
      vertex -2.25 2.43301 1.35
      vertex -2.25 2.43301 0
    endloop
  endfacet
  facet normal -0.707107 0.707107 0
    outer loop
      vertex -2.25 2.43301 1.35
      vertex -2.43301 2.25 0
      vertex -2.43301 2.25 1.35
    endloop
  endfacet
  facet normal -0.707109 -0.707105 0
    outer loop
      vertex -2.25 -2.43301 0
      vertex -2.43301 -2.25 1
      vertex -2.43301 -2.25 0
    endloop
  endfacet
  facet normal -0.707109 -0.707105 0
    outer loop
      vertex -2.43301 -2.25 1
      vertex -2.25 -2.43301 0
      vertex -2.25 -2.43301 1
    endloop
  endfacet
  facet normal -0.965925 -0.258822 0
    outer loop
      vertex -2.43301 -2.25 0
      vertex -2.5 -2 1
      vertex -2.5 -2 0
    endloop
  endfacet
  facet normal -0.965925 -0.258822 0
    outer loop
      vertex -2.5 -2 1
      vertex -2.43301 -2.25 0
      vertex -2.43301 -2.25 1
    endloop
  endfacet
  facet normal 0.258822 0.965925 -0
    outer loop
      vertex 2.25 2.43301 0
      vertex 2 2.5 1.35
      vertex 2.25 2.43301 1.35
    endloop
  endfacet
  facet normal 0.258822 0.965925 0
    outer loop
      vertex 2 2.5 1.35
      vertex 2.25 2.43301 0
      vertex 2 2.5 0
    endloop
  endfacet
  facet normal 0 1 0
    outer loop
      vertex 2 2.5 1.35
      vertex 1.75 2.5 0.15
      vertex -2 2.5 1.35
    endloop
  endfacet
  facet normal 0 1 -0
    outer loop
      vertex 2 2.5 0
      vertex 1.75 2.5 0.15
      vertex 2 2.5 1.35
    endloop
  endfacet
  facet normal 0 1 0
    outer loop
      vertex 1.75 2.5 0.15
      vertex 2 2.5 0
      vertex 1.75 2.5 0
    endloop
  endfacet
  facet normal 0 1 -0
    outer loop
      vertex -1.75 2.5 0.15
      vertex -2 2.5 1.35
      vertex 1.75 2.5 0.15
    endloop
  endfacet
  facet normal 0 1 0
    outer loop
      vertex -2 2.5 0
      vertex -1.75 2.5 0.15
      vertex -1.75 2.5 0
    endloop
  endfacet
  facet normal 0 1 0
    outer loop
      vertex -1.75 2.5 0.15
      vertex -2 2.5 0
      vertex -2 2.5 1.35
    endloop
  endfacet
  facet normal 0.707107 -0.707107 0
    outer loop
      vertex 2.25 -2.43301 1.35
      vertex 2.43301 -2.25 0
      vertex 2.43301 -2.25 1.35
    endloop
  endfacet
  facet normal 0.707107 -0.707107 0
    outer loop
      vertex 2.43301 -2.25 0
      vertex 2.25 -2.43301 1.35
      vertex 2.25 -2.43301 0
    endloop
  endfacet
  facet normal 0.965925 0.258822 0
    outer loop
      vertex 2.5 2 1.35
      vertex 2.43301 2.25 0
      vertex 2.43301 2.25 1.35
    endloop
  endfacet
  facet normal 0.965925 0.258822 0
    outer loop
      vertex 2.43301 2.25 0
      vertex 2.5 2 1.35
      vertex 2.5 2 0
    endloop
  endfacet
  facet normal -1 0 0
    outer loop
      vertex 2.325 -1.45 1.34
      vertex 2.325 1.45 1.35
      vertex 2.325 1.45 1.34
    endloop
  endfacet
  facet normal -1 -0 0
    outer loop
      vertex 2.325 1.45 1.35
      vertex 2.325 -1.45 1.34
      vertex 2.325 -1.45 1.35
    endloop
  endfacet
  facet normal -0.965925 0.258821 0
    outer loop
      vertex 2.20777 -1.8875 1.34
      vertex 2.325 -1.45 1.35
      vertex 2.325 -1.45 1.34
    endloop
  endfacet
  facet normal -0.965925 0.258821 0
    outer loop
      vertex 2.325 -1.45 1.35
      vertex 2.20777 -1.8875 1.34
      vertex 2.20777 -1.8875 1.35
    endloop
  endfacet
  facet normal -0.258821 0.965925 0
    outer loop
      vertex 1.8875 -2.20777 1.34
      vertex 1.45 -2.325 1.35
      vertex 1.8875 -2.20777 1.35
    endloop
  endfacet
  facet normal -0.258821 0.965925 0
    outer loop
      vertex 1.45 -2.325 1.35
      vertex 1.8875 -2.20777 1.34
      vertex 1.45 -2.325 1.34
    endloop
  endfacet
  facet normal 0.258821 0.965925 -0
    outer loop
      vertex -1.45 -2.325 1.34
      vertex -1.8875 -2.20777 1.35
      vertex -1.45 -2.325 1.35
    endloop
  endfacet
  facet normal 0.258821 0.965925 0
    outer loop
      vertex -1.8875 -2.20777 1.35
      vertex -1.45 -2.325 1.34
      vertex -1.8875 -2.20777 1.34
    endloop
  endfacet
  facet normal 1 -0 0
    outer loop
      vertex -2.325 -1.45 1.35
      vertex -2.325 1.45 1.34
      vertex -2.325 1.45 1.35
    endloop
  endfacet
  facet normal 1 0 0
    outer loop
      vertex -2.325 1.45 1.34
      vertex -2.325 -1.45 1.35
      vertex -2.325 -1.45 1.34
    endloop
  endfacet
  facet normal 0.258821 -0.965925 0
    outer loop
      vertex -1.8875 2.20777 1.34
      vertex -1.45 2.325 1.35
      vertex -1.8875 2.20777 1.35
    endloop
  endfacet
  facet normal 0.258821 -0.965925 0
    outer loop
      vertex -1.45 2.325 1.35
      vertex -1.8875 2.20777 1.34
      vertex -1.45 2.325 1.34
    endloop
  endfacet
  facet normal -0.258821 -0.965925 0
    outer loop
      vertex 1.45 2.325 1.34
      vertex 1.8875 2.20777 1.35
      vertex 1.45 2.325 1.35
    endloop
  endfacet
  facet normal -0.258821 -0.965925 -0
    outer loop
      vertex 1.8875 2.20777 1.35
      vertex 1.45 2.325 1.34
      vertex 1.8875 2.20777 1.34
    endloop
  endfacet
  facet normal -0.965925 -0.258821 0
    outer loop
      vertex 2.325 1.45 1.34
      vertex 2.20777 1.8875 1.35
      vertex 2.20777 1.8875 1.34
    endloop
  endfacet
  facet normal -0.965925 -0.258821 0
    outer loop
      vertex 2.20777 1.8875 1.35
      vertex 2.325 1.45 1.34
      vertex 2.325 1.45 1.35
    endloop
  endfacet
  facet normal -0.707107 0.707107 0
    outer loop
      vertex 1.8875 -2.20777 1.34
      vertex 2.20777 -1.8875 1.35
      vertex 2.20777 -1.8875 1.34
    endloop
  endfacet
  facet normal -0.707107 0.707107 0
    outer loop
      vertex 2.20777 -1.8875 1.35
      vertex 1.8875 -2.20777 1.34
      vertex 1.8875 -2.20777 1.35
    endloop
  endfacet
  facet normal 0 1 -0
    outer loop
      vertex 1.45 -2.325 1.34
      vertex -1.45 -2.325 1.35
      vertex 1.45 -2.325 1.35
    endloop
  endfacet
  facet normal 0 1 0
    outer loop
      vertex -1.45 -2.325 1.35
      vertex 1.45 -2.325 1.34
      vertex -1.45 -2.325 1.34
    endloop
  endfacet
  facet normal 0.965925 -0.258821 0
    outer loop
      vertex -2.325 1.45 1.35
      vertex -2.20777 1.8875 1.34
      vertex -2.20777 1.8875 1.35
    endloop
  endfacet
  facet normal 0.965925 -0.258821 0
    outer loop
      vertex -2.20777 1.8875 1.34
      vertex -2.325 1.45 1.35
      vertex -2.325 1.45 1.34
    endloop
  endfacet
  facet normal 0.707107 -0.707107 0
    outer loop
      vertex -2.20777 1.8875 1.35
      vertex -1.8875 2.20777 1.34
      vertex -1.8875 2.20777 1.35
    endloop
  endfacet
  facet normal 0.707107 -0.707107 0
    outer loop
      vertex -1.8875 2.20777 1.34
      vertex -2.20777 1.8875 1.35
      vertex -2.20777 1.8875 1.34
    endloop
  endfacet
  facet normal 0.707108 0.707106 0
    outer loop
      vertex -1.8875 -2.20777 1.35
      vertex -2.20777 -1.8875 1.34
      vertex -2.20777 -1.8875 1.35
    endloop
  endfacet
  facet normal 0.707108 0.707106 0
    outer loop
      vertex -2.20777 -1.8875 1.34
      vertex -1.8875 -2.20777 1.35
      vertex -1.8875 -2.20777 1.34
    endloop
  endfacet
  facet normal 0.965925 0.258821 0
    outer loop
      vertex -2.20777 -1.8875 1.35
      vertex -2.325 -1.45 1.34
      vertex -2.325 -1.45 1.35
    endloop
  endfacet
  facet normal 0.965925 0.258821 0
    outer loop
      vertex -2.325 -1.45 1.34
      vertex -2.20777 -1.8875 1.35
      vertex -2.20777 -1.8875 1.34
    endloop
  endfacet
  facet normal 0 -1 0
    outer loop
      vertex -1.45 2.325 1.34
      vertex 1.45 2.325 1.35
      vertex -1.45 2.325 1.35
    endloop
  endfacet
  facet normal 0 -1 -0
    outer loop
      vertex 1.45 2.325 1.35
      vertex -1.45 2.325 1.34
      vertex 1.45 2.325 1.34
    endloop
  endfacet
  facet normal -0.707108 -0.707106 0
    outer loop
      vertex 2.20777 1.8875 1.34
      vertex 1.8875 2.20777 1.35
      vertex 1.8875 2.20777 1.34
    endloop
  endfacet
  facet normal -0.707108 -0.707106 0
    outer loop
      vertex 1.8875 2.20777 1.35
      vertex 2.20777 1.8875 1.34
      vertex 2.20777 1.8875 1.35
    endloop
  endfacet
  facet normal 0 0 1
    outer loop
      vertex 1.45 2.325 1.34
      vertex 2.325 1.45 1.34
      vertex 2.20777 1.8875 1.34
    endloop
  endfacet
  facet normal 0 0 1
    outer loop
      vertex 2.325 1.45 1.34
      vertex 1.45 2.325 1.34
      vertex 2.325 -1.45 1.34
    endloop
  endfacet
  facet normal 0 0 1
    outer loop
      vertex 1.45 2.325 1.34
      vertex 2.20777 1.8875 1.34
      vertex 1.8875 2.20777 1.34
    endloop
  endfacet
  facet normal 0 0 1
    outer loop
      vertex 1.45 -2.325 1.34
      vertex 2.325 -1.45 1.34
      vertex 1.45 2.325 1.34
    endloop
  endfacet
  facet normal 0 0 1
    outer loop
      vertex 2.325 -1.45 1.34
      vertex 1.45 -2.325 1.34
      vertex 2.20777 -1.8875 1.34
    endloop
  endfacet
  facet normal 0 0 1
    outer loop
      vertex 2.20777 -1.8875 1.34
      vertex 1.45 -2.325 1.34
      vertex 1.8875 -2.20777 1.34
    endloop
  endfacet
  facet normal -0 0 1
    outer loop
      vertex -1.45 2.325 1.34
      vertex 1.45 -2.325 1.34
      vertex 1.45 2.325 1.34
    endloop
  endfacet
  facet normal 0 0 1
    outer loop
      vertex -1.45 2.325 1.34
      vertex -1.45 -2.325 1.34
      vertex 1.45 -2.325 1.34
    endloop
  endfacet
  facet normal 0 0 1
    outer loop
      vertex -2.325 1.45 1.34
      vertex -1.45 2.325 1.34
      vertex -1.8875 2.20777 1.34
    endloop
  endfacet
  facet normal 0 0 1
    outer loop
      vertex -1.45 2.325 1.34
      vertex -2.325 1.45 1.34
      vertex -1.45 -2.325 1.34
    endloop
  endfacet
  facet normal 0 0 1
    outer loop
      vertex -2.325 1.45 1.34
      vertex -1.8875 2.20777 1.34
      vertex -2.20777 1.8875 1.34
    endloop
  endfacet
  facet normal -0 0 1
    outer loop
      vertex -2.325 -1.45 1.34
      vertex -1.45 -2.325 1.34
      vertex -2.325 1.45 1.34
    endloop
  endfacet
  facet normal 0 0 1
    outer loop
      vertex -1.45 -2.325 1.34
      vertex -2.325 -1.45 1.34
      vertex -1.8875 -2.20777 1.34
    endloop
  endfacet
  facet normal 0 0 1
    outer loop
      vertex -1.8875 -2.20777 1.34
      vertex -2.325 -1.45 1.34
      vertex -2.20777 -1.8875 1.34
    endloop
  endfacet
  facet normal 0 0 -1
    outer loop
      vertex 2.5 -1 0.15
      vertex 1.85 -0.299999 0.15
      vertex 2.5 1 0.15
    endloop
  endfacet
  facet normal 0 0 -1
    outer loop
      vertex 2.5 -1 0.15
      vertex -1.85 -0.299999 0.15
      vertex 1.85 -0.299999 0.15
    endloop
  endfacet
  facet normal -0 0 -1
    outer loop
      vertex -1.85 -0.299999 0.15
      vertex -2.5 -1 0.15
      vertex -1.85 0.299999 0.15
    endloop
  endfacet
  facet normal 0 0 -1
    outer loop
      vertex -2.5 -1 0.15
      vertex -1.85 -0.299999 0.15
      vertex 2.5 -1 0.15
    endloop
  endfacet
  facet normal 0 0 -1
    outer loop
      vertex 1.85 0.299999 0.15
      vertex 2.5 1 0.15
      vertex 1.85 -0.299999 0.15
    endloop
  endfacet
  facet normal 0 0 -1
    outer loop
      vertex -1.85 0.299999 0.15
      vertex 2.5 1 0.15
      vertex 1.85 0.299999 0.15
    endloop
  endfacet
  facet normal 0 0 -1
    outer loop
      vertex -1.85 0.299999 0.15
      vertex -2.5 1 0.15
      vertex 2.5 1 0.15
    endloop
  endfacet
  facet normal 0 0 -1
    outer loop
      vertex -2.5 1 0.15
      vertex -1.85 0.299999 0.15
      vertex -2.5 -1 0.15
    endloop
  endfacet
  facet normal 0 -1 0
    outer loop
      vertex -2.5 1 0
      vertex 2.5 1 0.15
      vertex -2.5 1 0.15
    endloop
  endfacet
  facet normal 0 -1 -0
    outer loop
      vertex 2.5 1 0.15
      vertex -2.5 1 0
      vertex 2.5 1 0
    endloop
  endfacet
  facet normal 0 1 -0
    outer loop
      vertex 2.5 -1 0
      vertex -2.5 -1 0.15
      vertex 2.5 -1 0.15
    endloop
  endfacet
  facet normal 0 1 0
    outer loop
      vertex -2.5 -1 0.15
      vertex 2.5 -1 0
      vertex -2.5 -1 0
    endloop
  endfacet
  facet normal 0 0 1
    outer loop
      vertex -2 -2.5 1
      vertex -2.43301 -2.25 1
      vertex -2.25 -2.43301 1
    endloop
  endfacet
  facet normal -0 -0 1
    outer loop
      vertex -2.43301 -2.25 1
      vertex -2 -2.5 1
      vertex -2.5 -2 1
    endloop
  endfacet
  facet normal -0.707107 -0.707107 0
    outer loop
      vertex -2 -2.5 1
      vertex -2.5 -2 1.35
      vertex -2.5 -2 1
    endloop
  endfacet
  facet normal -0.707107 -0.707107 0
    outer loop
      vertex -2.5 -2 1.35
      vertex -2 -2.5 1
      vertex -2 -2.5 1.35
    endloop
  endfacet
  facet normal -1 0 0
    outer loop
      vertex -1.85 -0.299999 0
      vertex -1.85 0.299999 0.15
      vertex -1.85 0.299999 0
    endloop
  endfacet
  facet normal -1 -0 0
    outer loop
      vertex -1.85 0.299999 0.15
      vertex -1.85 -0.299999 0
      vertex -1.85 -0.299999 0.15
    endloop
  endfacet
  facet normal 1 -0 0
    outer loop
      vertex 1.85 -0.299999 0.15
      vertex 1.85 0.299999 0
      vertex 1.85 0.299999 0.15
    endloop
  endfacet
  facet normal 1 0 0
    outer loop
      vertex 1.85 0.299999 0
      vertex 1.85 -0.299999 0.15
      vertex 1.85 -0.299999 0
    endloop
  endfacet
  facet normal 0 1 -0
    outer loop
      vertex 1.85 0.299999 0
      vertex -1.85 0.299999 0.15
      vertex 1.85 0.299999 0.15
    endloop
  endfacet
  facet normal 0 1 0
    outer loop
      vertex -1.85 0.299999 0.15
      vertex 1.85 0.299999 0
      vertex -1.85 0.299999 0
    endloop
  endfacet
  facet normal 0 0 -1
    outer loop
      vertex -1.85 -0.299999 0
      vertex 1.85 0.299999 0
      vertex 1.85 -0.299999 0
    endloop
  endfacet
  facet normal -0 0 -1
    outer loop
      vertex 1.85 0.299999 0
      vertex -1.85 -0.299999 0
      vertex -1.85 0.299999 0
    endloop
  endfacet
  facet normal 0 -1 0
    outer loop
      vertex -1.85 -0.299999 0
      vertex 1.85 -0.299999 0.15
      vertex -1.85 -0.299999 0.15
    endloop
  endfacet
  facet normal 0 -1 -0
    outer loop
      vertex 1.85 -0.299999 0.15
      vertex -1.85 -0.299999 0
      vertex 1.85 -0.299999 0
    endloop
  endfacet
  facet normal -1 0 0
    outer loop
      vertex -1.75 2.5 0
      vertex -1.75 3.25 0.15
      vertex -1.75 3.25 0
    endloop
  endfacet
  facet normal -1 -0 0
    outer loop
      vertex -1.75 3.25 0.15
      vertex -1.75 2.5 0
      vertex -1.75 2.5 0.15
    endloop
  endfacet
  facet normal -0 0 1
    outer loop
      vertex -1.75 3.25 0.15
      vertex 1.75 2.5 0.15
      vertex 1.75 3.25 0.15
    endloop
  endfacet
  facet normal 0 0 1
    outer loop
      vertex 1.75 2.5 0.15
      vertex -1.75 3.25 0.15
      vertex -1.75 2.5 0.15
    endloop
  endfacet
  facet normal 1 -0 0
    outer loop
      vertex 1.75 2.5 0.15
      vertex 1.75 3.25 0
      vertex 1.75 3.25 0.15
    endloop
  endfacet
  facet normal 1 0 0
    outer loop
      vertex 1.75 3.25 0
      vertex 1.75 2.5 0.15
      vertex 1.75 2.5 0
    endloop
  endfacet
  facet normal 0 1 -0
    outer loop
      vertex 1.75 3.25 0
      vertex -1.75 3.25 0.15
      vertex 1.75 3.25 0.15
    endloop
  endfacet
  facet normal 0 1 0
    outer loop
      vertex -1.75 3.25 0.15
      vertex 1.75 3.25 0
      vertex -1.75 3.25 0
    endloop
  endfacet
  facet normal -1 0 0
    outer loop
      vertex -1.75 -3.25 0
      vertex -1.75 -2.5 0.15
      vertex -1.75 -2.5 0
    endloop
  endfacet
  facet normal -1 -0 0
    outer loop
      vertex -1.75 -2.5 0.15
      vertex -1.75 -3.25 0
      vertex -1.75 -3.25 0.15
    endloop
  endfacet
  facet normal -0 0 1
    outer loop
      vertex -1.75 -2.5 0.15
      vertex 1.75 -3.25 0.15
      vertex 1.75 -2.5 0.15
    endloop
  endfacet
  facet normal 0 0 1
    outer loop
      vertex 1.75 -3.25 0.15
      vertex -1.75 -2.5 0.15
      vertex -1.75 -3.25 0.15
    endloop
  endfacet
  facet normal 1 -0 0
    outer loop
      vertex 1.75 -3.25 0.15
      vertex 1.75 -2.5 0
      vertex 1.75 -2.5 0.15
    endloop
  endfacet
  facet normal 1 0 0
    outer loop
      vertex 1.75 -2.5 0
      vertex 1.75 -3.25 0.15
      vertex 1.75 -3.25 0
    endloop
  endfacet
  facet normal 0 -1 0
    outer loop
      vertex -1.75 -3.25 0
      vertex 1.75 -3.25 0.15
      vertex -1.75 -3.25 0.15
    endloop
  endfacet
  facet normal 0 -1 -0
    outer loop
      vertex 1.75 -3.25 0.15
      vertex -1.75 -3.25 0
      vertex 1.75 -3.25 0
    endloop
  endfacet
endsolid OpenSCAD_Model
